# Created by Kenney (www.kenney.nl)

mtllib snowman.mtl

g snowman

v 0.295706 0.132352 -0.049550 1 1 1
v 0.201609 0.171328 -0.049550 1 1 1
v 0.147362 0.132352 -0.306489 1 1 1
v 0.100313 0.171328 -0.224999 1 1 1
v -0.210772 -0.164336 -0.412917 1 1 1
v -0.420562 -0.164336 -0.049550 1 1 1
v -0.149326 -0.461024 -0.306489 1 1 1
v -0.297670 -0.461024 -0.049550 1 1 1
v 0.208808 -0.164336 0.313817 1 1 1
v -0.210772 -0.164336 0.313817 1 1 1
v 0.147362 0.132352 0.207389 1 1 1
v -0.149326 0.132352 0.207389 1 1 1
v -0.149326 0.132352 -0.306489 1 1 1
v -0.297670 0.132352 -0.049550 1 1 1
v 0.418598 -0.164336 -0.049550 1 1 1
v 0.100313 0.171328 0.125899 1 1 1
v -0.102278 0.171328 0.125899 1 1 1
v -0.102278 0.171328 -0.224999 1 1 1
v -0.203573 0.171328 -0.049550 1 1 1
v 0.208808 -0.164336 -0.412917 1 1 1
v 0.147362 -0.461024 -0.306489 1 1 1
v 0.295706 -0.461024 -0.049550 1 1 1
v 0.147362 -0.461024 0.207389 1 1 1
v -0.149326 -0.461024 0.207389 1 1 1
v 0.201609 -0.500000 -0.049550 1 1 1
v 0.100313 -0.500000 -0.224999 1 1 1
v 0.100313 -0.500000 0.125899 1 1 1
v -0.102278 -0.500000 -0.224999 1 1 1
v -0.102278 -0.500000 0.125899 1 1 1
v -0.203573 -0.500000 -0.049550 1 1 1
v 0.205513 0.750159 -0.049550 1 1 1
v 0.140021 0.777286 -0.049550 1 1 1
v 0.102265 0.750159 -0.228380 1 1 1
v 0.069520 0.777286 -0.171663 1 1 1
v 0.102265 0.337169 0.129280 1 1 1
v 0.069520 0.310042 0.072563 1 1 1
v -0.104230 0.337169 0.129280 1 1 1
v -0.071484 0.310042 0.072563 1 1 1
v 0.145032 0.543664 0.203353 1 1 1
v -0.146996 0.543664 0.203353 1 1 1
v 0.102265 0.750159 0.129280 1 1 1
v -0.104230 0.750159 0.129280 1 1 1
v 0.140021 0.310042 -0.049550 1 1 1
v 0.069520 0.310042 -0.171663 1 1 1
v -0.071484 0.310042 -0.171663 1 1 1
v -0.141986 0.310042 -0.049550 1 1 1
v 0.145032 0.543664 -0.302453 1 1 1
v 0.291045 0.543664 -0.049550 1 1 1
v 0.205513 0.337169 -0.049550 1 1 1
v 0.069520 0.777286 0.072563 1 1 1
v -0.071484 0.777286 0.072563 1 1 1
v 0.102265 0.337169 -0.228380 1 1 1
v -0.104230 0.337169 -0.228380 1 1 1
v -0.146996 0.543664 -0.302453 1 1 1
v -0.293010 0.543664 -0.049550 1 1 1
v -0.207477 0.337169 -0.049550 1 1 1
v -0.104230 0.750159 -0.228380 1 1 1
v -0.207477 0.750159 -0.049550 1 1 1
v -0.071484 0.777286 -0.171663 1 1 1
v -0.141986 0.777286 -0.049550 1 1 1
v 0.275205 0.339851 -0.049550 1 1 1
v 0.187610 0.376134 -0.049550 1 1 1
v 0.137111 0.339851 -0.288735 1 1 1
v 0.093314 0.376134 -0.212876 1 1 1
v 0.137111 -0.212523 0.189635 1 1 1
v 0.093314 -0.248806 0.113776 1 1 1
v -0.139076 -0.212523 0.189635 1 1 1
v -0.095278 -0.248806 0.113776 1 1 1
v -0.196276 0.063664 -0.387808 1 1 1
v -0.391569 0.063664 -0.049550 1 1 1
v -0.139076 -0.212523 -0.288735 1 1 1
v -0.277169 -0.212523 -0.049550 1 1 1
v 0.194311 0.063664 0.288708 1 1 1
v -0.000982 0.063664 0.288708 1 1 1
v 0.137111 0.339851 0.189635 1 1 1
v -0.000982 0.339851 0.189635 1 1 1
v -0.196276 0.063664 0.288708 1 1 1
v -0.139076 0.339851 0.189635 1 1 1
v -0.139076 0.339851 -0.288735 1 1 1
v -0.277169 0.339851 -0.049550 1 1 1
v 0.389605 0.063664 -0.049550 1 1 1
v -0.189574 -0.248806 -0.049550 1 1 1
v 0.093314 0.376134 0.113776 1 1 1
v -0.095278 0.376134 0.113776 1 1 1
v -0.095278 0.376134 -0.212876 1 1 1
v -0.189574 0.376134 -0.049550 1 1 1
v 0.187610 -0.248806 -0.049550 1 1 1
v 0.093314 -0.248806 -0.212876 1 1 1
v -0.095278 -0.248806 -0.212876 1 1 1
v 0.194311 0.063664 -0.387808 1 1 1
v 0.275205 -0.212523 -0.049550 1 1 1
v 0.137111 -0.212523 -0.288735 1 1 1
v -0.296635 0.107310 0.035303 1 1 1
v -0.318597 0.189271 0.070450 1 1 1
v -0.346045 0.117841 0.012342 1 1 1
v -0.362063 0.177624 0.037978 1 1 1
v -0.339409 0.093079 -0.049550 1 1 1
v -0.287538 0.073360 -0.049550 1 1 1
v -0.318597 0.189271 -0.169550 1 1 1
v -0.362063 0.177624 -0.137078 1 1 1
v -0.340558 0.271233 -0.134403 1 1 1
v -0.378082 0.237407 -0.111442 1 1 1
v -0.340558 0.271233 0.035303 1 1 1
v -0.378082 0.237407 0.012342 1 1 1
v -0.296635 0.107310 -0.134403 1 1 1
v -0.157139 0.108301 -0.049550 1 1 1
v -0.166235 0.142250 -0.134403 1 1 1
v -0.349655 0.305182 -0.049550 1 1 1
v -0.219255 0.340123 -0.049550 1 1 1
v -0.210158 0.306173 0.035303 1 1 1
v -0.166235 0.142250 0.035303 1 1 1
v -0.188197 0.224212 0.070450 1 1 1
v -0.210158 0.306173 -0.134403 1 1 1
v -0.346045 0.117841 -0.111442 1 1 1
v -0.384717 0.262170 -0.049550 1 1 1
v -0.188197 0.224212 -0.169550 1 1 1
v 0.296635 0.107310 0.035303 1 1 1
v 0.318597 0.189271 0.070450 1 1 1
v 0.346045 0.117841 0.012342 1 1 1
v 0.362064 0.177624 0.037978 1 1 1
v 0.339410 0.093079 -0.049550 1 1 1
v 0.287539 0.073360 -0.049550 1 1 1
v 0.318597 0.189271 -0.169550 1 1 1
v 0.362064 0.177624 -0.137078 1 1 1
v 0.340558 0.271233 -0.134403 1 1 1
v 0.378082 0.237407 -0.111442 1 1 1
v 0.340558 0.271233 0.035303 1 1 1
v 0.378082 0.237407 0.012342 1 1 1
v 0.296635 0.107310 -0.134403 1 1 1
v 0.157139 0.108301 -0.049550 1 1 1
v 0.166235 0.142250 -0.134403 1 1 1
v 0.349655 0.305182 -0.049550 1 1 1
v 0.219255 0.340123 -0.049550 1 1 1
v 0.210158 0.306173 0.035303 1 1 1
v 0.166235 0.142250 0.035303 1 1 1
v 0.188197 0.224212 0.070450 1 1 1
v 0.210158 0.306173 -0.134403 1 1 1
v 0.346045 0.117841 -0.111442 1 1 1
v 0.384717 0.262170 -0.049550 1 1 1
v 0.188197 0.224212 -0.169550 1 1 1
v -0.059531 0.630112 0.252368 1 1 1
v -0.030256 0.600838 0.412917 1 1 1
v -0.083782 0.571564 0.252368 1 1 1
v -0.042382 0.571564 0.412917 1 1 1
v -0.000982 0.654364 0.252368 1 1 1
v -0.000982 0.612964 0.412917 1 1 1
v -0.059531 0.513016 0.252368 1 1 1
v -0.030256 0.542290 0.412917 1 1 1
v -0.000982 0.488764 0.252368 1 1 1
v -0.000982 0.530164 0.412917 1 1 1
v 0.057566 0.513016 0.252368 1 1 1
v 0.028292 0.542290 0.412917 1 1 1
v 0.081818 0.571564 0.252368 1 1 1
v 0.040418 0.571564 0.412917 1 1 1
v 0.057566 0.630112 0.252368 1 1 1
v 0.028292 0.600838 0.412917 1 1 1
v -0.000982 0.633664 0.181077 1 1 1
v -0.044894 0.615475 0.181077 1 1 1
v 0.042929 0.615475 0.181077 1 1 1
v -0.000982 0.509464 0.181077 1 1 1
v 0.042929 0.527653 0.181077 1 1 1
v -0.044894 0.527653 0.181077 1 1 1
v -0.063082 0.571564 0.181077 1 1 1
v 0.061118 0.571564 0.181077 1 1 1
v 0.037323 0.239468 0.190778 1 1 1
v 0.037323 0.239468 0.246439 1 1 1
v -0.000982 0.259080 0.218609 1 1 1
v -0.015613 0.144772 0.263639 1 1 1
v -0.000982 0.125160 0.218609 1 1 1
v -0.048330 0.144772 0.218609 1 1 1
v -0.015613 0.239468 0.173578 1 1 1
v 0.037323 0.144772 0.246439 1 1 1
v 0.037323 0.144772 0.190778 1 1 1
v -0.015613 0.239468 0.263639 1 1 1
v -0.048330 0.239468 0.218609 1 1 1
v -0.015613 0.144772 0.173578 1 1 1
v 0.053190 0.192120 0.257967 1 1 1
v 0.053190 0.192120 0.179251 1 1 1
v -0.067942 0.192120 0.218609 1 1 1
v -0.021674 0.192120 0.282291 1 1 1
v -0.021674 0.192120 0.154926 1 1 1
v -0.070682 0.686721 0.128087 1 1 1
v -0.060928 0.699796 0.158107 1 1 1
v -0.092493 0.686721 0.158107 1 1 1
v -0.035391 0.686721 0.139554 1 1 1
v -0.035391 0.686721 0.176661 1 1 1
v -0.070682 0.686721 0.188128 1 1 1
v -0.060928 0.610516 0.158107 1 1 1
v -0.070682 0.623591 0.128087 1 1 1
v -0.092493 0.623591 0.158107 1 1 1
v -0.035391 0.623591 0.139554 1 1 1
v -0.035391 0.623591 0.176661 1 1 1
v -0.070682 0.623591 0.188128 1 1 1
v -0.074722 0.655156 0.115652 1 1 1
v -0.024813 0.655156 0.131869 1 1 1
v -0.105568 0.655156 0.158107 1 1 1
v -0.074722 0.655156 0.200563 1 1 1
v -0.024813 0.655156 0.184346 1 1 1
v 0.084500 0.686721 0.139554 1 1 1
v 0.084500 0.686721 0.176661 1 1 1
v 0.058963 0.699796 0.158107 1 1 1
v 0.049209 0.686721 0.188128 1 1 1
v 0.027398 0.686721 0.158107 1 1 1
v 0.049209 0.623591 0.188128 1 1 1
v 0.058963 0.610516 0.158107 1 1 1
v 0.027398 0.623591 0.158107 1 1 1
v 0.084500 0.623591 0.176661 1 1 1
v 0.084500 0.623591 0.139554 1 1 1
v 0.049209 0.686721 0.128087 1 1 1
v 0.049209 0.623591 0.128087 1 1 1
v 0.095078 0.655156 0.131869 1 1 1
v 0.095078 0.655156 0.184346 1 1 1
v 0.045169 0.655156 0.115652 1 1 1
v 0.014323 0.655156 0.158107 1 1 1
v 0.045169 0.655156 0.200563 1 1 1
v -0.565367 0.159798 -0.084950 1 1 1
v -0.547042 0.091411 -0.084950 1 1 1
v -0.626681 0.195198 -0.084950 1 1 1
v -0.582442 0.030096 -0.084950 1 1 1
v -0.618725 0.108852 -0.084950 1 1 1
v -0.662081 0.133883 -0.084950 1 1 1
v -0.643757 0.065496 -0.084950 1 1 1
v -0.618725 0.108852 -0.014150 1 1 1
v -0.643757 0.065496 -0.014150 1 1 1
v -0.626681 0.195198 -0.014150 1 1 1
v -0.662081 0.133883 -0.014150 1 1 1
v -0.362495 0.223320 -0.093800 1 1 1
v -0.339589 0.137835 -0.093800 1 1 1
v -0.547042 0.091411 -0.014150 1 1 1
v -0.582442 0.030096 -0.014150 1 1 1
v -0.565367 0.159798 -0.014150 1 1 1
v -0.362495 0.223320 -0.005300 1 1 1
v -0.339589 0.137835 -0.005300 1 1 1
v 0.565367 0.159798 -0.084950 1 1 1
v 0.547042 0.091411 -0.084950 1 1 1
v 0.626681 0.195198 -0.084950 1 1 1
v 0.582442 0.030096 -0.084950 1 1 1
v 0.618725 0.108852 -0.084950 1 1 1
v 0.662081 0.133883 -0.084950 1 1 1
v 0.643757 0.065496 -0.084950 1 1 1
v 0.618725 0.108852 -0.014150 1 1 1
v 0.643757 0.065496 -0.014150 1 1 1
v 0.626681 0.195198 -0.014150 1 1 1
v 0.662081 0.133883 -0.014150 1 1 1
v 0.362495 0.223320 -0.093800 1 1 1
v 0.339589 0.137835 -0.093800 1 1 1
v 0.547042 0.091411 -0.014150 1 1 1
v 0.582442 0.030096 -0.014150 1 1 1
v 0.565367 0.159798 -0.014150 1 1 1
v 0.362495 0.223320 -0.005300 1 1 1
v 0.339589 0.137835 -0.005300 1 1 1

vn 0.7596859 0.6502902 0
vn 0.3826834 0.9238795 0
vn 0.379843 0.6502903 -0.6579073
vn 0.1913417 0.9238795 -0.3314135
vn -0.5 0 -0.8660254
vn -1 0 0
vn -0.379843 -0.6502903 -0.6579073
vn -0.7596859 -0.6502902 0
vn 0.5 0 0.8660254
vn -0.5 0 0.8660254
vn 0.379843 0.6502903 0.6579073
vn -0.379843 0.6502903 0.6579073
vn -0.379843 0.6502903 -0.6579073
vn -0.7596859 0.6502902 0
vn 1 0 0
vn 0 1 0
vn 0.5 0 -0.8660254
vn 0.1913417 0.9238795 0.3314135
vn -0.1913417 0.9238795 0.3314135
vn -0.1913417 0.9238795 -0.3314135
vn -0.3826834 0.9238795 0
vn 0.379843 -0.6502903 -0.6579073
vn 0.7596859 -0.6502902 0
vn 0.379843 -0.6502903 0.6579073
vn -0.379843 -0.6502903 0.6579073
vn 0 -1 0
vn -0.1913417 -0.9238795 0.3314135
vn -0.3826834 -0.9238795 0
vn 0.1913417 -0.9238795 0.3314135
vn 0.1913417 -0.9238795 -0.3314135
vn -0.1913417 -0.9238795 -0.3314135
vn 0.3826834 -0.9238795 0
vn 0 0 1
vn 0 0.6702482 0.742137
vn -0.1024472 -0.7285883 0.677247
vn -0.2777316 -0.07441796 0.9577719
vn -0.7172746 -0.5846482 0.3790825
vn -0.8153884 -0.2184827 0.5361035
vn -0.6766346 -0.7363189 0
vn -0.02984196 -0.9995545 0
vn -0.2777316 -0.07441796 -0.9577719
vn -0.8153884 -0.2184827 -0.5361035
vn -0.453016 0.5797524 -0.677247
vn -0.9135022 0.1476828 -0.3790825
vn -0.453016 0.5797524 0.677247
vn -0.9135022 0.1476828 0.3790825
vn -0.1024472 -0.7285883 -0.677247
vn 0.258819 -0.9659258 0
vn 0.1830127 -0.6830127 -0.7071068
vn -0.5256212 0.8507186 0
vn -0.258819 0.9659258 0
vn -0.1830127 0.6830127 0.7071068
vn 0.1830127 -0.6830127 0.7071068
vn -0.1830127 0.6830127 -0.7071068
vn -0.7172746 -0.5846482 -0.3790825
vn -0.9541422 0.2993535 0
vn 0 0 -1
vn 0.1024472 -0.7285883 0.677247
vn 0.2777316 -0.07441795 0.9577719
vn 0.7172746 -0.5846481 0.3790825
vn 0.8153884 -0.2184826 0.5361035
vn 0.6766346 -0.7363188 0
vn 0.02984199 -0.9995545 0
vn 0.2777316 -0.07441795 -0.9577719
vn 0.8153884 -0.2184826 -0.5361035
vn 0.453016 0.5797524 -0.677247
vn 0.9135022 0.1476829 -0.3790825
vn 0.453016 0.5797524 0.677247
vn 0.9135022 0.1476829 0.3790825
vn 0.1024472 -0.7285883 -0.677247
vn -0.258819 -0.9659258 0
vn -0.1830127 -0.6830127 -0.7071068
vn 0.5256212 0.8507186 0
vn 0.258819 0.9659258 0
vn 0.1830127 0.6830127 0.7071068
vn -0.1830127 -0.6830127 0.7071068
vn 0.1830127 0.6830127 -0.7071068
vn 0.7172746 -0.5846481 -0.3790825
vn 0.9541422 0.2993536 0
vn -0.7070353 0.7070353 -0.01422148
vn -0.4890122 0.4890122 0.7223116
vn -0.9998989 0 -0.01422148
vn -0.6915677 0 0.7223116
vn 0 0.9998989 -0.01422148
vn 0 0.6915677 0.7223116
vn -0.7070353 -0.7070353 -0.01422148
vn -0.4890122 -0.4890122 0.7223116
vn 0 -0.9998989 -0.01422148
vn 0 -0.6915677 0.7223116
vn 0.7070353 -0.7070353 -0.01422148
vn 0.4890122 -0.4890122 0.7223116
vn 0.9998989 0 -0.01422148
vn 0.6915677 0 0.7223116
vn 0.7070353 0.7070353 -0.01422148
vn 0.4890122 0.4890122 0.7223116
vn 0 0.9603366 -0.2788434
vn -0.6790605 0.6790605 -0.2788434
vn 0.6790605 0.6790605 -0.2788434
vn 0.9603366 0 -0.2788434
vn 0.6790605 -0.6790605 -0.2788434
vn 0 -0.9603366 -0.2788434
vn -0.6790605 -0.6790605 -0.2788434
vn -0.9603366 0 -0.2788434
vn 0.6209776 0.6409644 -0.4511667
vn 0.6209776 0.6409644 0.4511667
vn -0.2371924 -0.6409644 0.730003
vn -0.7675706 -0.6409645 0
vn -0.2371924 0.6409644 -0.730003
vn 0.6209776 -0.6409644 0.4511667
vn 0.6209776 -0.6409644 -0.4511667
vn -0.2371924 0.6409644 0.730003
vn -0.7675706 0.6409645 0
vn -0.2371924 -0.6409644 -0.730003
vn 0.809017 0 0.5877852
vn 0.809017 0 -0.5877852
vn -0.309017 0 0.9510565
vn -0.309017 0 -0.9510565
vn -0.01634117 -0.004378606 -0.9998568
vn -0.8660254 0.4999999 0
vn -0.04021201 -0.01077478 -0.9991331
vn 0.5874803 -0.8092385 0
vn 0.8660254 -0.4999999 0
vn -0.01634117 -0.004378606 0.9998568
vn -0.2988068 0.9543136 0
vn 0.1041534 0.9945613 0
vn 0.4999999 0.8660254 0
vn -0.4999999 -0.8660254 0
vn 0.2183828 -0.9758632 0
vn -0.04021201 -0.01077478 0.9991331
vn 0.9659258 0.2588192 0
vn 0.01634117 -0.004378606 -0.9998568
vn 0.8660254 0.4999999 0
vn 0.04021201 -0.01077478 -0.9991331
vn -0.5874803 -0.8092385 0
vn -0.8660254 -0.4999999 0
vn 0.01634117 -0.004378606 0.9998568
vn 0.2988068 0.9543136 0
vn -0.1041534 0.9945613 0
vn -0.4999999 0.8660254 0
vn 0.4999999 -0.8660254 0
vn -0.2183827 -0.9758632 0
vn 0.04021201 -0.01077478 0.9991331
vn -0.9659258 0.2588192 0

vt 0.09375 0.2133884
vt 0.09375 0.225
vt 0.09375 0.125
vt 0.09375 0.03661165
vt 0.09375 0.025
vt 0.09375 0.2133883
vt 0.09375 0.1191942
vt 0.09375 0.03080583
vt 0.09375 0.075
vt 0.09375 0.08964466
vt 0.09375 0.09921174
vt 0.09375 0.0885299
vt 0.09375 0.1603553
vt 0.09375 0.1507883
vt 0.09375 0.175
vt 0.09375 0.1614701
vt 0.96875 0.4457107
vt 0.96875 0.4103553
vt 0.96875 0.375
vt 0.96875 0.475
vt 0.96875 0.425
vt 0.96875 0.3042893
vt 0.96875 0.3396447
vt 0.96875 0.275
vt 0.96875 0.325
vt 0.96875 0.45
vt 0.96875 0.428033
vt 0.96875 0.3
vt 0.96875 0.321967
vt 0.84375 0.1957107
vt 0.84375 0.225
vt 0.84375 0.05428932
vt 0.84375 0.025
vt 0.84375 0.125
vt 0.21875 0.4109246
vt 0.21875 0.4429623
vt 0.21875 0.4523459
vt 0.21875 0.475
vt 0.21875 0.275

usemtl colormap

f 3/1/3 2/2/2 1/1/1
f 2/2/2 3/1/3 4/2/4
f 7/4/7 6/3/6 5/3/5
f 6/3/6 7/4/7 8/4/8
f 11/1/11 10/3/10 9/3/9
f 10/3/10 11/1/11 12/1/12
f 6/3/6 13/1/13 5/3/5
f 13/1/13 6/3/6 14/1/14
f 1/1/1 9/3/9 15/3/15
f 9/3/9 1/1/1 11/1/11
f 4/2/16 16/2/16 2/2/16
f 16/2/16 4/2/16 17/2/16
f 17/2/16 4/2/16 18/2/16
f 17/2/16 18/2/16 19/2/16
f 3/1/3 15/3/15 20/3/17
f 15/3/15 3/1/3 1/1/1
f 16/2/18 12/1/12 11/1/11
f 12/1/12 16/2/18 17/2/19
f 13/1/13 4/2/4 3/1/3
f 4/2/4 13/1/13 18/2/20
f 6/3/6 12/1/12 14/1/14
f 12/1/12 6/3/6 10/3/10
f 19/2/21 12/1/12 17/2/19
f 12/1/12 19/2/21 14/1/14
f 5/3/5 21/4/22 7/4/7
f 21/4/22 5/3/5 20/3/17
f 9/3/9 22/4/23 15/3/15
f 22/4/23 9/3/9 23/4/24
f 15/3/15 21/4/22 20/3/17
f 21/4/22 15/3/15 22/4/23
f 13/1/13 19/2/21 18/2/20
f 19/2/21 13/1/13 14/1/14
f 24/4/25 6/3/6 8/4/8
f 6/3/6 24/4/25 10/3/10
f 13/1/13 20/3/17 5/3/5
f 20/3/17 13/1/13 3/1/3
f 9/3/9 24/4/25 23/4/24
f 24/4/25 9/3/9 10/3/10
f 2/2/2 11/1/11 1/1/1
f 11/1/11 2/2/2 16/2/18
f 27/5/26 26/5/26 25/5/26
f 26/5/26 27/5/26 28/5/26
f 28/5/26 27/5/26 29/5/26
f 28/5/26 29/5/26 30/5/26
f 24/4/25 30/5/28 29/5/27
f 30/5/28 24/4/25 8/4/8
f 24/4/25 27/5/29 23/4/24
f 27/5/29 24/4/25 29/5/27
f 26/5/30 7/4/7 21/4/22
f 7/4/7 26/5/30 28/5/31
f 30/5/28 7/4/7 28/5/31
f 7/4/7 30/5/28 8/4/8
f 23/4/24 25/5/32 22/4/23
f 25/5/32 23/4/24 27/5/29
f 25/5/32 21/4/22 22/4/23
f 21/4/22 25/5/32 26/5/30
f 33/6/3 32/2/2 31/6/1
f 32/2/2 33/6/3 34/2/4
f 37/4/25 36/5/29 35/4/24
f 36/5/29 37/4/25 38/5/27
f 41/6/11 40/3/10 39/3/9
f 40/3/10 41/6/11 42/6/12
f 36/5/26 44/5/26 43/5/26
f 44/5/26 36/5/26 45/5/26
f 45/5/26 36/5/26 38/5/26
f 45/5/26 38/5/26 46/5/26
f 33/6/3 48/3/15 47/3/17
f 48/3/15 33/6/3 31/6/1
f 35/4/24 43/5/32 49/4/23
f 43/5/32 35/4/24 36/5/29
f 50/2/18 42/6/12 41/6/11
f 42/6/12 50/2/18 51/2/19
f 43/5/32 52/4/22 49/4/23
f 52/4/22 43/5/32 44/5/30
f 44/5/30 53/4/7 52/4/22
f 53/4/7 44/5/30 45/5/31
f 53/4/7 55/3/6 54/3/5
f 55/3/6 53/4/7 56/4/8
f 55/3/6 57/6/13 54/3/5
f 57/6/13 55/3/6 58/6/14
f 31/6/1 39/3/9 48/3/15
f 39/3/9 31/6/1 41/6/11
f 37/4/25 46/5/28 38/5/27
f 46/5/28 37/4/25 56/4/8
f 34/2/16 50/2/16 32/2/16
f 50/2/16 34/2/16 51/2/16
f 51/2/16 34/2/16 59/2/16
f 51/2/16 59/2/16 60/2/16
f 48/3/15 52/4/22 47/3/17
f 52/4/22 48/3/15 49/4/23
f 57/6/13 60/2/21 59/2/20
f 60/2/21 57/6/13 58/6/14
f 37/4/25 55/3/6 56/4/8
f 55/3/6 37/4/25 40/3/10
f 60/2/21 42/6/12 51/2/19
f 42/6/12 60/2/21 58/6/14
f 57/6/13 34/2/4 33/6/3
f 34/2/4 57/6/13 59/2/20
f 39/3/9 49/4/23 48/3/15
f 49/4/23 39/3/9 35/4/24
f 55/3/6 42/6/12 58/6/14
f 42/6/12 55/3/6 40/3/10
f 54/3/5 52/4/22 53/4/7
f 52/4/22 54/3/5 47/3/17
f 39/3/9 37/4/25 35/4/24
f 37/4/25 39/3/9 40/3/10
f 46/5/28 53/4/7 45/5/31
f 53/4/7 46/5/28 56/4/8
f 57/6/13 47/3/17 54/3/5
f 47/3/17 57/6/13 33/6/3
f 32/2/2 41/6/11 31/6/1
f 41/6/11 32/2/2 50/2/18
f 63/7/3 62/3/2 61/7/1
f 62/3/2 63/7/3 64/3/4
f 67/8/25 66/5/29 65/8/24
f 66/5/29 67/8/25 68/5/27
f 71/8/7 70/9/6 69/9/5
f 70/9/6 71/8/7 72/8/8
f 75/7/11 74/9/33 73/9/9
f 74/9/33 75/7/11 76/7/34
f 76/7/34 77/9/10 74/9/33
f 77/9/10 76/7/34 78/7/12
f 70/9/6 79/7/13 69/9/5
f 79/7/13 70/9/6 80/7/14
f 61/7/1 73/9/9 81/9/15
f 73/9/9 61/7/1 75/7/11
f 67/8/25 82/5/28 68/5/27
f 82/5/28 67/8/25 72/8/8
f 64/3/16 83/3/16 62/3/16
f 83/3/16 64/3/16 84/3/16
f 84/3/16 64/3/16 85/3/16
f 84/3/16 85/3/16 86/3/16
f 66/5/26 88/5/26 87/5/26
f 88/5/26 66/5/26 89/5/26
f 89/5/26 66/5/26 68/5/26
f 89/5/26 68/5/26 82/5/26
f 63/7/3 81/9/15 90/9/17
f 81/9/15 63/7/3 61/7/1
f 65/8/24 87/5/32 91/8/23
f 87/5/32 65/8/24 66/5/29
f 83/3/18 76/7/34 75/7/11
f 76/7/34 83/3/18 84/3/19
f 76/7/34 84/3/19 78/7/12
f 87/5/32 92/8/22 91/8/23
f 92/8/22 87/5/32 88/5/30
f 88/5/30 71/8/7 92/8/22
f 71/8/7 88/5/30 89/5/31
f 79/7/13 64/3/4 63/7/3
f 64/3/4 79/7/13 85/3/20
f 70/9/6 78/7/12 80/7/14
f 78/7/12 70/9/6 77/9/10
f 86/3/21 78/7/12 84/3/19
f 78/7/12 86/3/21 80/7/14
f 69/9/5 92/8/22 71/8/7
f 92/8/22 69/9/5 90/9/17
f 73/9/9 91/8/23 81/9/15
f 91/8/23 73/9/9 65/8/24
f 81/9/15 92/8/22 90/9/17
f 92/8/22 81/9/15 91/8/23
f 79/7/13 86/3/21 85/3/20
f 86/3/21 79/7/13 80/7/14
f 67/8/25 70/9/6 72/8/8
f 70/9/6 67/8/25 77/9/10
f 82/5/28 71/8/7 89/5/31
f 71/8/7 82/5/28 72/8/8
f 79/7/13 90/9/17 69/9/5
f 90/9/17 79/7/13 63/7/3
f 73/9/9 67/8/25 65/8/24
f 67/8/25 73/9/9 77/9/10
f 77/9/10 73/9/9 74/9/33
f 62/3/2 75/7/11 61/7/1
f 75/7/11 62/3/2 83/3/18
f 106/9/48 111/10/53 98/9/40
f 93/10/35 98/9/40 111/10/53
f 103/13/45 94/3/36 110/13/52
f 112/3/33 110/13/52 94/3/36
f 101/13/43 113/13/54 99/3/41
f 116/3/57 99/3/41 113/13/54
f 99/3/41 116/3/57 105/10/47
f 107/10/49 105/10/47 116/3/57
f 96/3/38 104/14/46 95/11/37
f 95/11/37 104/14/46 97/12/39
f 104/14/46 115/16/56 97/12/39
f 97/12/39 115/16/56 114/11/55
f 115/16/56 102/14/44 114/11/55
f 100/3/42 114/11/55 102/14/44
f 100/3/42 99/3/41 114/11/55
f 105/10/47 114/11/55 99/3/41
f 103/13/45 108/15/50 104/14/46
f 115/16/56 104/14/46 108/15/50
f 108/15/50 101/13/43 115/16/56
f 102/14/44 115/16/56 101/13/43
f 105/10/47 98/9/40 114/11/55
f 97/12/39 114/11/55 98/9/40
f 109/15/51 113/13/54 108/15/50
f 101/13/43 108/15/50 113/13/54
f 94/3/36 93/10/35 112/3/33
f 111/10/53 112/3/33 93/10/35
f 110/13/52 109/15/51 103/13/45
f 108/15/50 103/13/45 109/15/51
f 107/10/49 106/9/48 105/10/47
f 98/9/40 105/10/47 106/9/48
f 104/14/46 96/3/38 103/13/45
f 94/3/36 103/13/45 96/3/38
f 102/14/44 101/13/43 100/3/42
f 99/3/41 100/3/42 101/13/43
f 98/9/40 93/10/35 97/12/39
f 95/11/37 97/12/39 93/10/35
f 96/3/38 95/11/37 94/3/36
f 93/10/35 94/3/36 95/11/37
f 119/11/60 118/3/59 117/10/58
f 118/3/59 119/11/60 120/3/61
f 117/10/58 121/12/62 119/11/60
f 121/12/62 117/10/58 122/9/63
f 125/13/66 124/3/65 123/3/64
f 124/3/65 125/13/66 126/14/67
f 120/3/61 127/13/68 118/3/59
f 127/13/68 120/3/61 128/14/69
f 130/9/71 129/10/70 122/9/63
f 129/10/70 130/9/71 131/10/72
f 133/15/74 127/13/68 132/15/73
f 127/13/68 133/15/74 134/13/75
f 117/10/58 136/3/33 135/10/76
f 136/3/33 117/10/58 118/3/59
f 137/13/77 132/15/73 125/13/66
f 132/15/73 137/13/77 133/15/74
f 122/9/63 138/11/78 121/12/62
f 138/11/78 122/9/63 129/10/70
f 125/13/66 139/16/79 126/14/67
f 139/16/79 125/13/66 132/15/73
f 132/15/73 128/14/69 139/16/79
f 128/14/69 132/15/73 127/13/68
f 123/3/64 138/11/78 129/10/70
f 138/11/78 123/3/64 124/3/65
f 126/14/67 138/11/78 124/3/65
f 138/11/78 126/14/67 139/16/79
f 138/11/78 139/16/79 121/12/62
f 121/12/62 139/16/79 128/14/69
f 121/12/62 128/14/69 119/11/60
f 119/11/60 128/14/69 120/3/61
f 140/3/57 129/10/70 131/10/72
f 129/10/70 140/3/57 123/3/64
f 137/13/77 123/3/64 140/3/57
f 123/3/64 137/13/77 125/13/66
f 118/3/59 134/13/75 136/3/33
f 134/13/75 118/3/59 127/13/68
f 135/10/76 122/9/63 117/10/58
f 122/9/63 135/10/76 130/9/71
f 143/19/82 142/18/81 141/17/80
f 142/18/81 143/19/82 144/19/83
f 141/17/80 146/21/85 145/20/84
f 146/21/85 141/17/80 142/18/81
f 147/22/86 144/19/83 143/19/82
f 144/19/83 147/22/86 148/23/87
f 150/25/89 147/22/86 149/24/88
f 147/22/86 150/25/89 148/23/87
f 152/23/91 149/24/88 151/22/90
f 149/24/88 152/23/91 150/25/89
f 154/19/93 151/22/90 153/19/92
f 151/22/90 154/19/93 152/23/91
f 145/20/84 156/18/95 155/17/94
f 156/18/95 145/20/84 146/21/85
f 156/18/95 153/19/92 155/17/94
f 153/19/92 156/18/95 154/19/93
f 158/27/97 145/20/84 157/26/96
f 145/20/84 158/27/97 141/17/80
f 159/27/98 145/20/84 155/17/94
f 145/20/84 159/27/98 157/26/96
f 152/23/91 148/23/87 150/25/89
f 148/23/87 152/23/91 154/19/93
f 148/23/87 154/19/93 144/19/83
f 144/19/83 154/19/93 156/18/95
f 144/19/83 156/18/95 142/18/81
f 142/18/81 156/18/95 146/21/85
f 162/29/57 161/29/57 160/28/57
f 161/29/57 162/29/57 163/19/57
f 161/29/57 163/19/57 164/19/57
f 164/19/57 163/19/57 158/27/57
f 164/19/57 158/27/57 159/27/57
f 159/27/57 158/27/57 157/26/57
f 159/27/98 153/19/92 164/19/99
f 153/19/92 159/27/98 155/17/94
f 153/19/92 161/29/100 164/19/99
f 161/29/100 153/19/92 151/22/90
f 147/22/86 160/28/101 149/24/88
f 160/28/101 147/22/86 162/29/102
f 147/22/86 163/19/103 162/29/102
f 163/19/103 147/22/86 143/19/82
f 149/24/88 161/29/100 151/22/90
f 161/29/100 149/24/88 160/28/101
f 143/19/82 158/27/97 163/19/103
f 158/27/97 143/19/82 141/17/80
f 167/31/16 166/30/105 165/30/104
f 170/32/107 169/33/26 168/32/106
f 171/30/108 167/31/16 165/30/104
f 169/33/26 173/32/110 172/32/109
f 175/30/112 174/30/111 167/31/16
f 170/32/107 176/32/113 169/33/26
f 174/30/111 166/30/105 167/31/16
f 175/30/112 167/31/16 171/30/108
f 176/32/113 173/32/110 169/33/26
f 168/32/106 169/33/26 172/32/109
f 177/34/114 165/30/104 166/30/105
f 165/30/104 177/34/114 178/34/115
f 177/34/114 173/32/110 178/34/115
f 173/32/110 177/34/114 172/32/109
f 180/34/116 175/30/112 179/34/6
f 175/30/112 180/34/116 174/30/111
f 179/34/6 171/30/108 181/34/117
f 171/30/108 179/34/6 175/30/112
f 168/32/106 179/34/6 170/32/107
f 179/34/6 168/32/106 180/34/116
f 181/34/117 173/32/110 176/32/113
f 173/32/110 181/34/117 178/34/115
f 176/32/113 179/34/6 181/34/117
f 179/34/6 176/32/113 170/32/107
f 166/30/105 180/34/116 177/34/114
f 180/34/116 166/30/105 174/30/111
f 177/34/114 168/32/106 172/32/109
f 168/32/106 177/34/114 180/34/116
f 171/30/108 178/34/115 181/34/117
f 178/34/115 171/30/108 165/30/104
f 184/30/112 183/31/16 182/30/108
f 182/30/108 183/31/16 185/30/104
f 187/30/111 186/30/105 183/31/16
f 190/32/107 189/32/113 188/33/26
f 184/30/112 187/30/111 183/31/16
f 189/32/113 191/32/110 188/33/26
f 193/32/106 188/33/26 192/32/109
f 190/32/107 188/33/26 193/32/106
f 183/31/16 186/30/105 185/30/104
f 188/33/26 191/32/110 192/32/109
f 194/34/117 191/32/110 189/32/113
f 191/32/110 194/34/117 195/34/115
f 193/32/106 196/34/6 190/32/107
f 196/34/6 193/32/106 197/34/116
f 186/30/105 197/34/116 198/34/114
f 197/34/116 186/30/105 187/30/111
f 189/32/113 196/34/6 194/34/117
f 196/34/6 189/32/113 190/32/107
f 198/34/114 191/32/110 195/34/115
f 191/32/110 198/34/114 192/32/109
f 196/34/6 182/30/108 194/34/117
f 182/30/108 196/34/6 184/30/112
f 185/30/104 198/34/114 195/34/115
f 198/34/114 185/30/104 186/30/105
f 198/34/114 193/32/106 192/32/109
f 193/32/106 198/34/114 197/34/116
f 197/34/116 184/30/112 196/34/6
f 184/30/112 197/34/116 187/30/111
f 182/30/108 195/34/115 194/34/117
f 195/34/115 182/30/108 185/30/104
f 201/31/16 200/30/105 199/30/104
f 203/30/112 202/30/111 201/31/16
f 206/32/107 205/33/26 204/32/106
f 205/33/26 208/32/110 207/32/109
f 209/30/108 201/31/16 199/30/104
f 206/32/107 210/32/113 205/33/26
f 202/30/111 200/30/105 201/31/16
f 204/32/106 205/33/26 207/32/109
f 210/32/113 208/32/110 205/33/26
f 203/30/112 201/31/16 209/30/108
f 199/30/104 212/34/114 211/34/115
f 212/34/114 199/30/104 200/30/105
f 213/34/117 208/32/110 210/32/113
f 208/32/110 213/34/117 211/34/115
f 210/32/113 214/34/6 213/34/117
f 214/34/6 210/32/113 206/32/107
f 204/32/106 214/34/6 206/32/107
f 214/34/6 204/32/106 215/34/116
f 214/34/6 209/30/108 213/34/117
f 209/30/108 214/34/6 203/30/112
f 215/34/116 203/30/112 214/34/6
f 203/30/112 215/34/116 202/30/111
f 200/30/105 215/34/116 212/34/114
f 215/34/116 200/30/105 202/30/111
f 212/34/114 208/32/110 211/34/115
f 208/32/110 212/34/114 207/32/109
f 212/34/114 204/32/106 207/32/109
f 204/32/106 212/34/114 215/34/116
f 209/30/108 211/34/115 213/34/117
f 211/34/115 209/30/108 199/30/104
f 232/39/130 233/39/130 227/39/130
f 228/39/130 227/39/130 233/39/130
f 229/35/123 233/39/129 231/35/123
f 232/39/129 231/35/123 233/39/129
f 229/35/121 217/35/121 233/39/128
f 228/39/128 233/39/128 217/35/121
f 226/38/127 221/38/127 223/37/127
f 220/37/127 223/37/127 221/38/127
f 224/38/127 222/38/127 230/36/127
f 219/36/127 230/36/127 222/38/127
f 225/36/126 231/35/125 218/36/126
f 216/35/125 218/36/126 231/35/125
f 231/35/125 232/39/124 216/35/125
f 227/39/124 216/35/125 232/39/124
f 231/35/123 225/36/33 229/35/123
f 230/36/33 229/35/123 225/36/33
f 226/38/33 223/37/33 225/36/33
f 223/37/33 230/36/33 225/36/33
f 230/36/33 223/37/33 224/38/33
f 230/36/122 219/36/122 229/35/121
f 217/35/121 229/35/121 219/36/122
f 217/35/118 216/35/118 228/39/120
f 227/39/120 228/39/120 216/35/118
f 226/38/119 225/36/119 221/38/119
f 218/36/119 221/38/119 225/36/119
f 224/38/119 223/37/119 222/38/119
f 220/37/119 222/38/119 223/37/119
f 220/37/57 219/36/57 222/38/57
f 221/38/57 218/36/57 220/37/57
f 220/37/57 218/36/57 219/36/57
f 219/36/57 218/36/57 217/35/118
f 216/35/118 217/35/118 218/36/57
f 236/36/57 235/35/131 234/35/131
f 235/35/131 236/36/57 237/36/57
f 237/36/57 236/36/57 238/37/57
f 238/37/57 236/36/57 239/38/57
f 240/38/57 237/36/57 238/37/57
f 241/37/132 240/38/132 238/37/132
f 240/38/132 241/37/132 242/38/132
f 243/36/132 239/38/132 236/36/132
f 239/38/132 243/36/132 244/38/132
f 234/35/131 246/39/133 245/39/133
f 246/39/133 234/35/131 235/35/131
f 237/36/135 247/35/134 235/35/134
f 247/35/134 237/36/135 248/36/135
f 242/38/33 241/37/33 248/36/33
f 243/36/33 248/36/33 241/37/33
f 243/36/33 241/37/33 244/38/33
f 243/36/33 247/35/136 248/36/33
f 247/35/136 243/36/33 249/35/136
f 250/39/137 234/35/138 245/39/137
f 234/35/138 250/39/137 249/35/138
f 249/35/138 236/36/139 234/35/138
f 236/36/139 249/35/138 243/36/139
f 240/38/140 248/36/140 237/36/140
f 248/36/140 240/38/140 242/38/140
f 239/38/140 241/37/140 238/37/140
f 241/37/140 239/38/140 244/38/140
f 235/35/134 251/39/141 246/39/141
f 251/39/141 235/35/134 247/35/134
f 251/39/142 249/35/136 250/39/142
f 249/35/136 251/39/142 247/35/136
f 251/39/143 245/39/143 246/39/143
f 245/39/143 251/39/143 250/39/143

g snowman




usemtl colormap

f 3/1/3 2/2/2 1/1/1
f 2/2/2 3/1/3 4/2/4
f 7/4/7 6/3/6 5/3/5
f 6/3/6 7/4/7 8/4/8
f 11/1/11 10/3/10 9/3/9
f 10/3/10 11/1/11 12/1/12
f 6/3/6 13/1/13 5/3/5
f 13/1/13 6/3/6 14/1/14
f 1/1/1 9/3/9 15/3/15
f 9/3/9 1/1/1 11/1/11
f 4/2/16 16/2/16 2/2/16
f 16/2/16 4/2/16 17/2/16
f 17/2/16 4/2/16 18/2/16
f 17/2/16 18/2/16 19/2/16
f 3/1/3 15/3/15 20/3/17
f 15/3/15 3/1/3 1/1/1
f 16/2/18 12/1/12 11/1/11
f 12/1/12 16/2/18 17/2/19
f 13/1/13 4/2/4 3/1/3
f 4/2/4 13/1/13 18/2/20
f 6/3/6 12/1/12 14/1/14
f 12/1/12 6/3/6 10/3/10
f 19/2/21 12/1/12 17/2/19
f 12/1/12 19/2/21 14/1/14
f 5/3/5 21/4/22 7/4/7
f 21/4/22 5/3/5 20/3/17
f 9/3/9 22/4/23 15/3/15
f 22/4/23 9/3/9 23/4/24
f 15/3/15 21/4/22 20/3/17
f 21/4/22 15/3/15 22/4/23
f 13/1/13 19/2/21 18/2/20
f 19/2/21 13/1/13 14/1/14
f 24/4/25 6/3/6 8/4/8
f 6/3/6 24/4/25 10/3/10
f 13/1/13 20/3/17 5/3/5
f 20/3/17 13/1/13 3/1/3
f 9/3/9 24/4/25 23/4/24
f 24/4/25 9/3/9 10/3/10
f 2/2/2 11/1/11 1/1/1
f 11/1/11 2/2/2 16/2/18
f 27/5/26 26/5/26 25/5/26
f 26/5/26 27/5/26 28/5/26
f 28/5/26 27/5/26 29/5/26
f 28/5/26 29/5/26 30/5/26
f 24/4/25 30/5/28 29/5/27
f 30/5/28 24/4/25 8/4/8
f 24/4/25 27/5/29 23/4/24
f 27/5/29 24/4/25 29/5/27
f 26/5/30 7/4/7 21/4/22
f 7/4/7 26/5/30 28/5/31
f 30/5/28 7/4/7 28/5/31
f 7/4/7 30/5/28 8/4/8
f 23/4/24 25/5/32 22/4/23
f 25/5/32 23/4/24 27/5/29
f 25/5/32 21/4/22 22/4/23
f 21/4/22 25/5/32 26/5/30
f 33/6/3 32/2/2 31/6/1
f 32/2/2 33/6/3 34/2/4
f 37/4/25 36/5/29 35/4/24
f 36/5/29 37/4/25 38/5/27
f 41/6/11 40/3/10 39/3/9
f 40/3/10 41/6/11 42/6/12
f 36/5/26 44/5/26 43/5/26
f 44/5/26 36/5/26 45/5/26
f 45/5/26 36/5/26 38/5/26
f 45/5/26 38/5/26 46/5/26
f 33/6/3 48/3/15 47/3/17
f 48/3/15 33/6/3 31/6/1
f 35/4/24 43/5/32 49/4/23
f 43/5/32 35/4/24 36/5/29
f 50/2/18 42/6/12 41/6/11
f 42/6/12 50/2/18 51/2/19
f 43/5/32 52/4/22 49/4/23
f 52/4/22 43/5/32 44/5/30
f 44/5/30 53/4/7 52/4/22
f 53/4/7 44/5/30 45/5/31
f 53/4/7 55/3/6 54/3/5
f 55/3/6 53/4/7 56/4/8
f 55/3/6 57/6/13 54/3/5
f 57/6/13 55/3/6 58/6/14
f 31/6/1 39/3/9 48/3/15
f 39/3/9 31/6/1 41/6/11
f 37/4/25 46/5/28 38/5/27
f 46/5/28 37/4/25 56/4/8
f 34/2/16 50/2/16 32/2/16
f 50/2/16 34/2/16 51/2/16
f 51/2/16 34/2/16 59/2/16
f 51/2/16 59/2/16 60/2/16
f 48/3/15 52/4/22 47/3/17
f 52/4/22 48/3/15 49/4/23
f 57/6/13 60/2/21 59/2/20
f 60/2/21 57/6/13 58/6/14
f 37/4/25 55/3/6 56/4/8
f 55/3/6 37/4/25 40/3/10
f 60/2/21 42/6/12 51/2/19
f 42/6/12 60/2/21 58/6/14
f 57/6/13 34/2/4 33/6/3
f 34/2/4 57/6/13 59/2/20
f 39/3/9 49/4/23 48/3/15
f 49/4/23 39/3/9 35/4/24
f 55/3/6 42/6/12 58/6/14
f 42/6/12 55/3/6 40/3/10
f 54/3/5 52/4/22 53/4/7
f 52/4/22 54/3/5 47/3/17
f 39/3/9 37/4/25 35/4/24
f 37/4/25 39/3/9 40/3/10
f 46/5/28 53/4/7 45/5/31
f 53/4/7 46/5/28 56/4/8
f 57/6/13 47/3/17 54/3/5
f 47/3/17 57/6/13 33/6/3
f 32/2/2 41/6/11 31/6/1
f 41/6/11 32/2/2 50/2/18
f 63/7/3 62/3/2 61/7/1
f 62/3/2 63/7/3 64/3/4
f 67/8/25 66/5/29 65/8/24
f 66/5/29 67/8/25 68/5/27
f 71/8/7 70/9/6 69/9/5
f 70/9/6 71/8/7 72/8/8
f 75/7/11 74/9/33 73/9/9
f 74/9/33 75/7/11 76/7/34
f 76/7/34 77/9/10 74/9/33
f 77/9/10 76/7/34 78/7/12
f 70/9/6 79/7/13 69/9/5
f 79/7/13 70/9/6 80/7/14
f 61/7/1 73/9/9 81/9/15
f 73/9/9 61/7/1 75/7/11
f 67/8/25 82/5/28 68/5/27
f 82/5/28 67/8/25 72/8/8
f 64/3/16 83/3/16 62/3/16
f 83/3/16 64/3/16 84/3/16
f 84/3/16 64/3/16 85/3/16
f 84/3/16 85/3/16 86/3/16
f 66/5/26 88/5/26 87/5/26
f 88/5/26 66/5/26 89/5/26
f 89/5/26 66/5/26 68/5/26
f 89/5/26 68/5/26 82/5/26
f 63/7/3 81/9/15 90/9/17
f 81/9/15 63/7/3 61/7/1
f 65/8/24 87/5/32 91/8/23
f 87/5/32 65/8/24 66/5/29
f 83/3/18 76/7/34 75/7/11
f 76/7/34 83/3/18 84/3/19
f 76/7/34 84/3/19 78/7/12
f 87/5/32 92/8/22 91/8/23
f 92/8/22 87/5/32 88/5/30
f 88/5/30 71/8/7 92/8/22
f 71/8/7 88/5/30 89/5/31
f 79/7/13 64/3/4 63/7/3
f 64/3/4 79/7/13 85/3/20
f 70/9/6 78/7/12 80/7/14
f 78/7/12 70/9/6 77/9/10
f 86/3/21 78/7/12 84/3/19
f 78/7/12 86/3/21 80/7/14
f 69/9/5 92/8/22 71/8/7
f 92/8/22 69/9/5 90/9/17
f 73/9/9 91/8/23 81/9/15
f 91/8/23 73/9/9 65/8/24
f 81/9/15 92/8/22 90/9/17
f 92/8/22 81/9/15 91/8/23
f 79/7/13 86/3/21 85/3/20
f 86/3/21 79/7/13 80/7/14
f 67/8/25 70/9/6 72/8/8
f 70/9/6 67/8/25 77/9/10
f 82/5/28 71/8/7 89/5/31
f 71/8/7 82/5/28 72/8/8
f 79/7/13 90/9/17 69/9/5
f 90/9/17 79/7/13 63/7/3
f 73/9/9 67/8/25 65/8/24
f 67/8/25 73/9/9 77/9/10
f 77/9/10 73/9/9 74/9/33
f 62/3/2 75/7/11 61/7/1
f 75/7/11 62/3/2 83/3/18
f 106/9/48 111/10/53 98/9/40
f 93/10/35 98/9/40 111/10/53
f 103/13/45 94/3/36 110/13/52
f 112/3/33 110/13/52 94/3/36
f 101/13/43 113/13/54 99/3/41
f 116/3/57 99/3/41 113/13/54
f 99/3/41 116/3/57 105/10/47
f 107/10/49 105/10/47 116/3/57
f 96/3/38 104/14/46 95/11/37
f 95/11/37 104/14/46 97/12/39
f 104/14/46 115/16/56 97/12/39
f 97/12/39 115/16/56 114/11/55
f 115/16/56 102/14/44 114/11/55
f 100/3/42 114/11/55 102/14/44
f 100/3/42 99/3/41 114/11/55
f 105/10/47 114/11/55 99/3/41
f 103/13/45 108/15/50 104/14/46
f 115/16/56 104/14/46 108/15/50
f 108/15/50 101/13/43 115/16/56
f 102/14/44 115/16/56 101/13/43
f 105/10/47 98/9/40 114/11/55
f 97/12/39 114/11/55 98/9/40
f 109/15/51 113/13/54 108/15/50
f 101/13/43 108/15/50 113/13/54
f 94/3/36 93/10/35 112/3/33
f 111/10/53 112/3/33 93/10/35
f 110/13/52 109/15/51 103/13/45
f 108/15/50 103/13/45 109/15/51
f 107/10/49 106/9/48 105/10/47
f 98/9/40 105/10/47 106/9/48
f 104/14/46 96/3/38 103/13/45
f 94/3/36 103/13/45 96/3/38
f 102/14/44 101/13/43 100/3/42
f 99/3/41 100/3/42 101/13/43
f 98/9/40 93/10/35 97/12/39
f 95/11/37 97/12/39 93/10/35
f 96/3/38 95/11/37 94/3/36
f 93/10/35 94/3/36 95/11/37
f 119/11/60 118/3/59 117/10/58
f 118/3/59 119/11/60 120/3/61
f 117/10/58 121/12/62 119/11/60
f 121/12/62 117/10/58 122/9/63
f 125/13/66 124/3/65 123/3/64
f 124/3/65 125/13/66 126/14/67
f 120/3/61 127/13/68 118/3/59
f 127/13/68 120/3/61 128/14/69
f 130/9/71 129/10/70 122/9/63
f 129/10/70 130/9/71 131/10/72
f 133/15/74 127/13/68 132/15/73
f 127/13/68 133/15/74 134/13/75
f 117/10/58 136/3/33 135/10/76
f 136/3/33 117/10/58 118/3/59
f 137/13/77 132/15/73 125/13/66
f 132/15/73 137/13/77 133/15/74
f 122/9/63 138/11/78 121/12/62
f 138/11/78 122/9/63 129/10/70
f 125/13/66 139/16/79 126/14/67
f 139/16/79 125/13/66 132/15/73
f 132/15/73 128/14/69 139/16/79
f 128/14/69 132/15/73 127/13/68
f 123/3/64 138/11/78 129/10/70
f 138/11/78 123/3/64 124/3/65
f 126/14/67 138/11/78 124/3/65
f 138/11/78 126/14/67 139/16/79
f 138/11/78 139/16/79 121/12/62
f 121/12/62 139/16/79 128/14/69
f 121/12/62 128/14/69 119/11/60
f 119/11/60 128/14/69 120/3/61
f 140/3/57 129/10/70 131/10/72
f 129/10/70 140/3/57 123/3/64
f 137/13/77 123/3/64 140/3/57
f 123/3/64 137/13/77 125/13/66
f 118/3/59 134/13/75 136/3/33
f 134/13/75 118/3/59 127/13/68
f 135/10/76 122/9/63 117/10/58
f 122/9/63 135/10/76 130/9/71
f 143/19/82 142/18/81 141/17/80
f 142/18/81 143/19/82 144/19/83
f 141/17/80 146/21/85 145/20/84
f 146/21/85 141/17/80 142/18/81
f 147/22/86 144/19/83 143/19/82
f 144/19/83 147/22/86 148/23/87
f 150/25/89 147/22/86 149/24/88
f 147/22/86 150/25/89 148/23/87
f 152/23/91 149/24/88 151/22/90
f 149/24/88 152/23/91 150/25/89
f 154/19/93 151/22/90 153/19/92
f 151/22/90 154/19/93 152/23/91
f 145/20/84 156/18/95 155/17/94
f 156/18/95 145/20/84 146/21/85
f 156/18/95 153/19/92 155/17/94
f 153/19/92 156/18/95 154/19/93
f 158/27/97 145/20/84 157/26/96
f 145/20/84 158/27/97 141/17/80
f 159/27/98 145/20/84 155/17/94
f 145/20/84 159/27/98 157/26/96
f 152/23/91 148/23/87 150/25/89
f 148/23/87 152/23/91 154/19/93
f 148/23/87 154/19/93 144/19/83
f 144/19/83 154/19/93 156/18/95
f 144/19/83 156/18/95 142/18/81
f 142/18/81 156/18/95 146/21/85
f 162/29/57 161/29/57 160/28/57
f 161/29/57 162/29/57 163/19/57
f 161/29/57 163/19/57 164/19/57
f 164/19/57 163/19/57 158/27/57
f 164/19/57 158/27/57 159/27/57
f 159/27/57 158/27/57 157/26/57
f 159/27/98 153/19/92 164/19/99
f 153/19/92 159/27/98 155/17/94
f 153/19/92 161/29/100 164/19/99
f 161/29/100 153/19/92 151/22/90
f 147/22/86 160/28/101 149/24/88
f 160/28/101 147/22/86 162/29/102
f 147/22/86 163/19/103 162/29/102
f 163/19/103 147/22/86 143/19/82
f 149/24/88 161/29/100 151/22/90
f 161/29/100 149/24/88 160/28/101
f 143/19/82 158/27/97 163/19/103
f 158/27/97 143/19/82 141/17/80
f 167/31/16 166/30/105 165/30/104
f 170/32/107 169/33/26 168/32/106
f 171/30/108 167/31/16 165/30/104
f 169/33/26 173/32/110 172/32/109
f 175/30/112 174/30/111 167/31/16
f 170/32/107 176/32/113 169/33/26
f 174/30/111 166/30/105 167/31/16
f 175/30/112 167/31/16 171/30/108
f 176/32/113 173/32/110 169/33/26
f 168/32/106 169/33/26 172/32/109
f 177/34/114 165/30/104 166/30/105
f 165/30/104 177/34/114 178/34/115
f 177/34/114 173/32/110 178/34/115
f 173/32/110 177/34/114 172/32/109
f 180/34/116 175/30/112 179/34/6
f 175/30/112 180/34/116 174/30/111
f 179/34/6 171/30/108 181/34/117
f 171/30/108 179/34/6 175/30/112
f 168/32/106 179/34/6 170/32/107
f 179/34/6 168/32/106 180/34/116
f 181/34/117 173/32/110 176/32/113
f 173/32/110 181/34/117 178/34/115
f 176/32/113 179/34/6 181/34/117
f 179/34/6 176/32/113 170/32/107
f 166/30/105 180/34/116 177/34/114
f 180/34/116 166/30/105 174/30/111
f 177/34/114 168/32/106 172/32/109
f 168/32/106 177/34/114 180/34/116
f 171/30/108 178/34/115 181/34/117
f 178/34/115 171/30/108 165/30/104
f 184/30/112 183/31/16 182/30/108
f 182/30/108 183/31/16 185/30/104
f 187/30/111 186/30/105 183/31/16
f 190/32/107 189/32/113 188/33/26
f 184/30/112 187/30/111 183/31/16
f 189/32/113 191/32/110 188/33/26
f 193/32/106 188/33/26 192/32/109
f 190/32/107 188/33/26 193/32/106
f 183/31/16 186/30/105 185/30/104
f 188/33/26 191/32/110 192/32/109
f 194/34/117 191/32/110 189/32/113
f 191/32/110 194/34/117 195/34/115
f 193/32/106 196/34/6 190/32/107
f 196/34/6 193/32/106 197/34/116
f 186/30/105 197/34/116 198/34/114
f 197/34/116 186/30/105 187/30/111
f 189/32/113 196/34/6 194/34/117
f 196/34/6 189/32/113 190/32/107
f 198/34/114 191/32/110 195/34/115
f 191/32/110 198/34/114 192/32/109
f 196/34/6 182/30/108 194/34/117
f 182/30/108 196/34/6 184/30/112
f 185/30/104 198/34/114 195/34/115
f 198/34/114 185/30/104 186/30/105
f 198/34/114 193/32/106 192/32/109
f 193/32/106 198/34/114 197/34/116
f 197/34/116 184/30/112 196/34/6
f 184/30/112 197/34/116 187/30/111
f 182/30/108 195/34/115 194/34/117
f 195/34/115 182/30/108 185/30/104
f 201/31/16 200/30/105 199/30/104
f 203/30/112 202/30/111 201/31/16
f 206/32/107 205/33/26 204/32/106
f 205/33/26 208/32/110 207/32/109
f 209/30/108 201/31/16 199/30/104
f 206/32/107 210/32/113 205/33/26
f 202/30/111 200/30/105 201/31/16
f 204/32/106 205/33/26 207/32/109
f 210/32/113 208/32/110 205/33/26
f 203/30/112 201/31/16 209/30/108
f 199/30/104 212/34/114 211/34/115
f 212/34/114 199/30/104 200/30/105
f 213/34/117 208/32/110 210/32/113
f 208/32/110 213/34/117 211/34/115
f 210/32/113 214/34/6 213/34/117
f 214/34/6 210/32/113 206/32/107
f 204/32/106 214/34/6 206/32/107
f 214/34/6 204/32/106 215/34/116
f 214/34/6 209/30/108 213/34/117
f 209/30/108 214/34/6 203/30/112
f 215/34/116 203/30/112 214/34/6
f 203/30/112 215/34/116 202/30/111
f 200/30/105 215/34/116 212/34/114
f 215/34/116 200/30/105 202/30/111
f 212/34/114 208/32/110 211/34/115
f 208/32/110 212/34/114 207/32/109
f 212/34/114 204/32/106 207/32/109
f 204/32/106 212/34/114 215/34/116
f 209/30/108 211/34/115 213/34/117
f 211/34/115 209/30/108 199/30/104
f 232/39/130 233/39/130 227/39/130
f 228/39/130 227/39/130 233/39/130
f 229/35/123 233/39/129 231/35/123
f 232/39/129 231/35/123 233/39/129
f 229/35/121 217/35/121 233/39/128
f 228/39/128 233/39/128 217/35/121
f 226/38/127 221/38/127 223/37/127
f 220/37/127 223/37/127 221/38/127
f 224/38/127 222/38/127 230/36/127
f 219/36/127 230/36/127 222/38/127
f 225/36/126 231/35/125 218/36/126
f 216/35/125 218/36/126 231/35/125
f 231/35/125 232/39/124 216/35/125
f 227/39/124 216/35/125 232/39/124
f 231/35/123 225/36/33 229/35/123
f 230/36/33 229/35/123 225/36/33
f 226/38/33 223/37/33 225/36/33
f 223/37/33 230/36/33 225/36/33
f 230/36/33 223/37/33 224/38/33
f 230/36/122 219/36/122 229/35/121
f 217/35/121 229/35/121 219/36/122
f 217/35/118 216/35/118 228/39/120
f 227/39/120 228/39/120 216/35/118
f 226/38/119 225/36/119 221/38/119
f 218/36/119 221/38/119 225/36/119
f 224/38/119 223/37/119 222/38/119
f 220/37/119 222/38/119 223/37/119
f 220/37/57 219/36/57 222/38/57
f 221/38/57 218/36/57 220/37/57
f 220/37/57 218/36/57 219/36/57
f 219/36/57 218/36/57 217/35/118
f 216/35/118 217/35/118 218/36/57
f 236/36/57 235/35/131 234/35/131
f 235/35/131 236/36/57 237/36/57
f 237/36/57 236/36/57 238/37/57
f 238/37/57 236/36/57 239/38/57
f 240/38/57 237/36/57 238/37/57
f 241/37/132 240/38/132 238/37/132
f 240/38/132 241/37/132 242/38/132
f 243/36/132 239/38/132 236/36/132
f 239/38/132 243/36/132 244/38/132
f 234/35/131 246/39/133 245/39/133
f 246/39/133 234/35/131 235/35/131
f 237/36/135 247/35/134 235/35/134
f 247/35/134 237/36/135 248/36/135
f 242/38/33 241/37/33 248/36/33
f 243/36/33 248/36/33 241/37/33
f 243/36/33 241/37/33 244/38/33
f 243/36/33 247/35/136 248/36/33
f 247/35/136 243/36/33 249/35/136
f 250/39/137 234/35/138 245/39/137
f 234/35/138 250/39/137 249/35/138
f 249/35/138 236/36/139 234/35/138
f 236/36/139 249/35/138 243/36/139
f 240/38/140 248/36/140 237/36/140
f 248/36/140 240/38/140 242/38/140
f 239/38/140 241/37/140 238/37/140
f 241/37/140 239/38/140 244/38/140
f 235/35/134 251/39/141 246/39/141
f 251/39/141 235/35/134 247/35/134
f 251/39/142 249/35/136 250/39/142
f 249/35/136 251/39/142 247/35/136
f 251/39/143 245/39/143 246/39/143
f 245/39/143 251/39/143 250/39/143
