# Created by Kenney (www.kenney.nl)

mtllib tree-decorated-snow.mtl

g tree-decorated-snow

v 0.541450 -0.155000 0.000000 1 1 1
v 0.382863 -0.155000 -0.382863 1 1 1
v 0.382863 -0.155000 0.382863 1 1 1
v 0.000000 -0.155000 -0.541450 1 1 1
v 0.000000 -0.155000 0.541450 1 1 1
v -0.382863 -0.155000 0.382863 1 1 1
v -0.382863 -0.155000 -0.382863 1 1 1
v -0.541450 -0.155000 -0.000000 1 1 1
v 0.595000 -0.070000 0.000000 1 1 1
v 0.420729 -0.070000 0.420729 1 1 1
v -0.420729 -0.070000 -0.420729 1 1 1
v -0.000000 -0.070000 -0.595000 1 1 1
v -0.000000 -0.070000 0.595000 1 1 1
v -0.595000 -0.070000 0.000000 1 1 1
v -0.420729 -0.070000 0.420729 1 1 1
v 0.420729 -0.070000 -0.420729 1 1 1
v 0.347480 0.482500 -0.000000 1 1 1
v 0.245705 0.482500 0.245705 1 1 1
v 0.245705 0.482500 -0.245705 1 1 1
v -0.000000 0.482500 -0.347480 1 1 1
v -0.000000 0.482500 0.347480 1 1 1
v -0.245705 0.482500 -0.245705 1 1 1
v -0.245705 0.482500 0.245705 1 1 1
v -0.347480 0.482500 -0.000000 1 1 1
v -0.434588 0.142500 -0.000000 1 1 1
v -0.307300 0.142500 0.307300 1 1 1
v -0.307300 0.142500 -0.307300 1 1 1
v 0.307300 0.142500 -0.307300 1 1 1
v 0.434588 0.142500 0.000000 1 1 1
v -0.000000 0.142500 -0.434588 1 1 1
v 0.307300 0.142500 0.307300 1 1 1
v -0.000000 0.142500 0.434588 1 1 1
v 0.325087 0.772372 -0.000000 1 1 1
v 0.229871 0.772372 -0.229871 1 1 1
v 0.229871 0.772372 0.229871 1 1 1
v 0.000000 0.772372 -0.325087 1 1 1
v 0.000000 0.772372 0.325087 1 1 1
v -0.229871 0.772372 0.229871 1 1 1
v -0.229871 0.772372 -0.229871 1 1 1
v -0.325087 0.772372 -0.000000 1 1 1
v 0.357238 0.823406 -0.000000 1 1 1
v 0.252605 0.823406 0.252605 1 1 1
v -0.252605 0.823406 -0.252605 1 1 1
v 0.000000 0.823406 -0.357238 1 1 1
v 0.000000 0.823406 0.357238 1 1 1
v -0.357238 0.823406 -0.000000 1 1 1
v -0.252605 0.823406 0.252605 1 1 1
v 0.252605 0.823406 -0.252605 1 1 1
v -0.184503 0.950992 -0.184503 1 1 1
v 0.000000 0.950992 -0.260927 1 1 1
v -0.260927 0.950992 -0.000000 1 1 1
v 0.184503 0.950992 0.184503 1 1 1
v 0.000000 0.950992 0.260927 1 1 1
v 0.184503 0.950992 -0.184503 1 1 1
v -0.184503 0.950992 0.184503 1 1 1
v 0.260927 0.950992 -0.000000 1 1 1
v 0.034423 1.420451 0.000000 1 1 1
v 0.024341 1.420451 0.024341 1 1 1
v 0.024341 1.420451 -0.024341 1 1 1
v 0.000000 1.420451 -0.034423 1 1 1
v 0.000000 1.420451 0.034423 1 1 1
v -0.024341 1.420451 -0.024341 1 1 1
v -0.024341 1.420451 0.024341 1 1 1
v -0.034423 1.420451 0.000000 1 1 1
v -0.099577 1.220451 -0.099577 1 1 1
v 0.000000 1.220451 -0.140823 1 1 1
v 0.099577 1.220451 -0.099577 1 1 1
v 0.140823 1.220451 0.000000 1 1 1
v -0.140823 1.220451 0.000000 1 1 1
v -0.099577 1.220451 0.099577 1 1 1
v 0.000000 1.220451 0.140823 1 1 1
v 0.099577 1.220451 0.099577 1 1 1
v 0.411502 0.321500 -0.000000 1 1 1
v 0.290976 0.321500 -0.290976 1 1 1
v 0.290976 0.321500 0.290976 1 1 1
v 0.000000 0.321500 -0.411502 1 1 1
v 0.000000 0.321500 0.411502 1 1 1
v -0.290976 0.321500 0.290976 1 1 1
v -0.290976 0.321500 -0.290976 1 1 1
v -0.411502 0.321500 -0.000000 1 1 1
v 0.452200 0.386100 -0.000000 1 1 1
v 0.319754 0.386100 0.319754 1 1 1
v -0.319754 0.386100 -0.319754 1 1 1
v 0.000000 0.386100 -0.452200 1 1 1
v 0.000000 0.386100 0.452200 1 1 1
v -0.452200 0.386100 -0.000000 1 1 1
v -0.319754 0.386100 0.319754 1 1 1
v 0.319754 0.386100 -0.319754 1 1 1
v 0.264085 0.806000 -0.000000 1 1 1
v 0.186736 0.806000 0.186736 1 1 1
v 0.186736 0.806000 -0.186736 1 1 1
v 0.000000 0.806000 -0.264085 1 1 1
v 0.000000 0.806000 0.264085 1 1 1
v -0.186736 0.806000 -0.186736 1 1 1
v -0.186736 0.806000 0.186736 1 1 1
v -0.264085 0.806000 -0.000000 1 1 1
v -0.330287 0.547600 -0.000000 1 1 1
v -0.233548 0.547600 0.233548 1 1 1
v -0.233548 0.547600 -0.233548 1 1 1
v 0.233548 0.547600 -0.233548 1 1 1
v 0.330287 0.547600 -0.000000 1 1 1
v 0.000000 0.547600 -0.330287 1 1 1
v 0.233548 0.547600 0.233548 1 1 1
v 0.000000 0.547600 0.330287 1 1 1
v 0.184969 0.425330 0.345970 1 1 1
v 0.153467 0.399233 0.400532 1 1 1
v 0.121966 0.399233 0.345970 1 1 1
v 0.216471 0.399233 0.400532 1 1 1
v 0.216471 0.399233 0.291407 1 1 1
v 0.247972 0.399233 0.345970 1 1 1
v 0.153467 0.399233 0.291407 1 1 1
v 0.247972 0.273226 0.345970 1 1 1
v 0.216471 0.273226 0.291407 1 1 1
v 0.184969 0.247130 0.345970 1 1 1
v 0.216471 0.273226 0.400532 1 1 1
v 0.153467 0.273226 0.400532 1 1 1
v 0.121966 0.273226 0.345970 1 1 1
v 0.153467 0.273226 0.291407 1 1 1
v 0.095869 0.336230 0.345970 1 1 1
v 0.140419 0.336230 0.423133 1 1 1
v 0.229519 0.336230 0.423133 1 1 1
v 0.274069 0.336230 0.345970 1 1 1
v 0.229519 0.336230 0.268807 1 1 1
v 0.140419 0.336230 0.268807 1 1 1
v 0.244952 0.848370 0.137424 1 1 1
v 0.276454 0.874466 0.082861 1 1 1
v 0.213451 0.874466 0.082861 1 1 1
v 0.213451 0.874466 0.191986 1 1 1
v 0.181949 0.874466 0.137424 1 1 1
v 0.307955 1.000473 0.137424 1 1 1
v 0.276454 1.000473 0.191986 1 1 1
v 0.244952 1.026570 0.137424 1 1 1
v 0.213451 1.000473 0.191986 1 1 1
v 0.276454 0.874466 0.191986 1 1 1
v 0.276454 1.000473 0.082861 1 1 1
v 0.213451 1.000473 0.082861 1 1 1
v 0.307955 0.874466 0.137424 1 1 1
v 0.181949 1.000473 0.137424 1 1 1
v 0.289502 0.937470 0.060261 1 1 1
v 0.334052 0.937470 0.137424 1 1 1
v 0.289502 0.937470 0.214587 1 1 1
v 0.200402 0.937470 0.060261 1 1 1
v 0.155852 0.937470 0.137424 1 1 1
v 0.200402 0.937470 0.214587 1 1 1
v -0.384143 0.441771 0.076431 1 1 1
v -0.352642 0.415675 0.021869 1 1 1
v -0.415645 0.441771 0.021869 1 1 1
v -0.384143 0.567778 -0.032693 1 1 1
v -0.352642 0.593875 0.021869 1 1 1
v -0.415645 0.567778 0.021869 1 1 1
v -0.321140 0.441771 -0.032693 1 1 1
v -0.384143 0.441771 -0.032693 1 1 1
v -0.289639 0.567778 0.021869 1 1 1
v -0.321140 0.567778 0.076431 1 1 1
v -0.321140 0.441771 0.076431 1 1 1
v -0.289639 0.441771 0.021869 1 1 1
v -0.321140 0.567778 -0.032693 1 1 1
v -0.384143 0.567778 0.076431 1 1 1
v -0.441742 0.504775 0.021869 1 1 1
v -0.397192 0.504775 0.099032 1 1 1
v -0.263542 0.504775 0.021869 1 1 1
v -0.308092 0.504775 0.099032 1 1 1
v -0.397192 0.504775 -0.055294 1 1 1
v -0.308092 0.504775 -0.055294 1 1 1
v 0.177267 1.644338 0.065301 1 1 1
v 0.177267 1.644338 -0.065301 1 1 1
v 0.080900 1.574325 0.065301 1 1 1
v 0.080900 1.574325 -0.065301 1 1 1
v -0.080489 1.574325 -0.065301 1 1 1
v -0.080489 1.574325 0.065301 1 1 1
v -0.115966 1.465142 -0.065301 1 1 1
v -0.115966 1.465142 0.065301 1 1 1
v 0.086678 1.452871 0.065301 1 1 1
v 0.000206 1.515696 0.065301 1 1 1
v 0.116522 1.464698 0.065301 1 1 1
v -0.085820 1.453195 0.065301 1 1 1
v -0.175894 1.643640 0.065301 1 1 1
v -0.164834 1.669188 0.065301 1 1 1
v 0.166509 1.669188 0.065301 1 1 1
v 0.050078 1.669188 0.065301 1 1 1
v -0.049666 1.669188 0.065301 1 1 1
v 0.012426 1.785071 0.065301 1 1 1
v -0.012201 1.784496 0.065301 1 1 1
v 0.000838 1.789664 0.065301 1 1 1
v 0.166509 1.669188 -0.065301 1 1 1
v 0.000838 1.789664 -0.065301 1 1 1
v -0.012201 1.784496 -0.065301 1 1 1
v -0.085820 1.453195 -0.065301 1 1 1
v 0.000206 1.515696 -0.065301 1 1 1
v -0.175894 1.643640 -0.065301 1 1 1
v 0.116522 1.464698 -0.065301 1 1 1
v 0.086678 1.452871 -0.065301 1 1 1
v -0.164834 1.669188 -0.065301 1 1 1
v -0.049666 1.669188 -0.065301 1 1 1
v 0.050078 1.669188 -0.065301 1 1 1
v 0.012426 1.785071 -0.065301 1 1 1
v 0.097418 1.350914 -0.000000 1 1 1
v 0.069130 1.350914 -0.068293 1 1 1
v 0.069130 1.350914 0.068293 1 1 1
v 0.000838 1.350914 0.096581 1 1 1
v 0.000838 1.350914 -0.096581 1 1 1
v -0.067455 1.350914 0.068293 1 1 1
v -0.067455 1.350914 -0.068293 1 1 1
v -0.095743 1.350914 -0.000000 1 1 1
v 0.046353 1.542164 -0.000000 1 1 1
v 0.033021 1.542164 0.032184 1 1 1
v 0.033021 1.542164 -0.032184 1 1 1
v 0.000838 1.542164 -0.045515 1 1 1
v 0.000838 1.542164 0.045515 1 1 1
v -0.031346 1.542164 -0.032184 1 1 1
v -0.031346 1.542164 0.032184 1 1 1
v -0.044677 1.542164 -0.000000 1 1 1
v -0.135778 1.089433 0.099462 1 1 1
v -0.167279 1.115530 0.044899 1 1 1
v -0.198781 1.115530 0.099462 1 1 1
v -0.167279 1.115530 0.154024 1 1 1
v -0.104276 1.115530 0.154024 1 1 1
v -0.104276 1.241536 0.044899 1 1 1
v -0.135778 1.267633 0.099462 1 1 1
v -0.167279 1.241536 0.044899 1 1 1
v -0.072775 1.115530 0.099462 1 1 1
v -0.104276 1.115530 0.044899 1 1 1
v -0.167279 1.241536 0.154024 1 1 1
v -0.198781 1.241536 0.099462 1 1 1
v -0.104276 1.241536 0.154024 1 1 1
v -0.072775 1.241536 0.099462 1 1 1
v -0.091228 1.178533 0.022299 1 1 1
v -0.046678 1.178533 0.099462 1 1 1
v -0.180328 1.178533 0.022299 1 1 1
v -0.224878 1.178533 0.099462 1 1 1
v -0.091228 1.178533 0.176625 1 1 1
v -0.180328 1.178533 0.176625 1 1 1
v -0.316929 0.269390 0.142937 1 1 1
v -0.348430 0.295487 0.197500 1 1 1
v -0.379932 0.269390 0.142937 1 1 1
v -0.411433 0.269390 0.197500 1 1 1
v -0.379932 0.143384 0.252062 1 1 1
v -0.348430 0.117287 0.197500 1 1 1
v -0.411433 0.143384 0.197500 1 1 1
v -0.285427 0.143384 0.197500 1 1 1
v -0.316929 0.143384 0.142937 1 1 1
v -0.316929 0.143384 0.252062 1 1 1
v -0.379932 0.143384 0.142937 1 1 1
v -0.379932 0.269390 0.252062 1 1 1
v -0.316929 0.269390 0.252062 1 1 1
v -0.285427 0.269390 0.197500 1 1 1
v -0.303880 0.206387 0.274663 1 1 1
v -0.392980 0.206387 0.274663 1 1 1
v -0.303880 0.206387 0.120337 1 1 1
v -0.259330 0.206387 0.197500 1 1 1
v -0.392980 0.206387 0.120337 1 1 1
v -0.437530 0.206387 0.197500 1 1 1
v 0.103954 0.828056 0.249455 1 1 1
v 0.072452 0.854152 0.304018 1 1 1
v 0.040950 0.828056 0.249455 1 1 1
v 0.009449 0.828056 0.304018 1 1 1
v 0.040950 0.702049 0.358580 1 1 1
v 0.072452 0.675952 0.304018 1 1 1
v 0.009449 0.702049 0.304018 1 1 1
v 0.135455 0.702049 0.304018 1 1 1
v 0.103954 0.702049 0.249455 1 1 1
v 0.103954 0.702049 0.358580 1 1 1
v 0.040950 0.702049 0.249455 1 1 1
v 0.040950 0.828056 0.358580 1 1 1
v 0.103954 0.828056 0.358580 1 1 1
v 0.135455 0.828056 0.304018 1 1 1
v 0.117002 0.765052 0.381181 1 1 1
v 0.027902 0.765052 0.381181 1 1 1
v 0.117002 0.765052 0.226855 1 1 1
v 0.161552 0.765052 0.304018 1 1 1
v 0.027902 0.765052 0.226855 1 1 1
v -0.016648 0.765052 0.304018 1 1 1
v -0.016101 0.490902 -0.401244 1 1 1
v 0.016101 0.611081 -0.364767 1 1 1
v -0.290156 0.564334 -0.283722 1 1 1
v -0.233040 0.677838 -0.257929 1 1 1
v -0.403673 0.594751 0.000000 1 1 1
v -0.336237 0.705490 0.000000 1 1 1
v -0.290156 0.564334 0.283722 1 1 1
v -0.233040 0.677838 0.257929 1 1 1
v -0.016101 0.490902 0.401244 1 1 1
v 0.016101 0.611081 0.364767 1 1 1
v 0.257954 0.417469 0.283722 1 1 1
v 0.265242 0.544324 0.257929 1 1 1
v 0.257954 0.417469 -0.283722 1 1 1
v 0.371471 0.387052 0.000000 1 1 1
v 0.265242 0.544324 -0.257929 1 1 1
v 0.368439 0.516673 0.000000 1 1 1
v 0.009307 0.035597 -0.541679 1 1 1
v -0.009307 0.166386 -0.492436 1 1 1
v -0.369897 -0.018372 -0.383025 1 1 1
v -0.354038 0.117324 -0.348204 1 1 1
v -0.526968 -0.040727 0.000000 1 1 1
v -0.496830 0.097002 0.000000 1 1 1
v -0.369897 -0.018372 0.383025 1 1 1
v -0.354038 0.117324 0.348204 1 1 1
v 0.388511 0.089565 0.383025 1 1 1
v 0.009307 0.035597 0.541679 1 1 1
v 0.335424 0.215449 0.348204 1 1 1
v -0.009307 0.166386 0.492436 1 1 1
v 0.388511 0.089565 -0.383025 1 1 1
v 0.545582 0.111920 0.000000 1 1 1
v 0.335424 0.215449 -0.348204 1 1 1
v 0.478216 0.235771 0.000000 1 1 1
v -0.183097 0.950167 -0.202953 1 1 1
v 0.012941 1.002695 -0.287019 1 1 1
v -0.191157 1.051535 -0.184503 1 1 1
v -0.012941 1.099288 -0.260927 1 1 1
v -0.264298 0.928409 -0.000000 1 1 1
v -0.264977 1.031755 -0.000000 1 1 1
v -0.183097 0.950167 0.202953 1 1 1
v -0.191157 1.051535 0.184503 1 1 1
v 0.208979 1.055223 0.202953 1 1 1
v 0.012941 1.002695 0.287019 1 1 1
v 0.165275 1.147041 0.184503 1 1 1
v -0.012941 1.099288 0.260927 1 1 1
v 0.208979 1.055223 -0.202953 1 1 1
v 0.290180 1.076981 0.000000 1 1 1
v 0.165275 1.147041 -0.184503 1 1 1
v 0.239095 1.166821 0.000000 1 1 1
v 0.230826 -0.059210 0.430029 1 1 1
v 0.199324 -0.033113 0.484592 1 1 1
v 0.167823 -0.059210 0.430029 1 1 1
v 0.136321 -0.059210 0.484592 1 1 1
v 0.167823 -0.185216 0.539154 1 1 1
v 0.199324 -0.211313 0.484592 1 1 1
v 0.136321 -0.185216 0.484592 1 1 1
v 0.262327 -0.185216 0.484592 1 1 1
v 0.230826 -0.185216 0.430029 1 1 1
v 0.230826 -0.185216 0.539154 1 1 1
v 0.167823 -0.185216 0.430029 1 1 1
v 0.167823 -0.059210 0.539154 1 1 1
v 0.230826 -0.059210 0.539154 1 1 1
v 0.262327 -0.059210 0.484592 1 1 1
v 0.243874 -0.122213 0.561755 1 1 1
v 0.154774 -0.122213 0.561755 1 1 1
v 0.243874 -0.122213 0.407429 1 1 1
v 0.288424 -0.122213 0.484592 1 1 1
v 0.154774 -0.122213 0.407429 1 1 1
v 0.110224 -0.122213 0.484592 1 1 1
v 0.051635 1.470451 -0.000000 1 1 1
v 0.036512 1.470451 0.036512 1 1 1
v 0.036512 1.470451 -0.036512 1 1 1
v 0.000000 1.470451 -0.051635 1 1 1
v 0.000000 1.470451 0.051635 1 1 1
v -0.036512 1.470451 -0.036512 1 1 1
v -0.036512 1.470451 0.036512 1 1 1
v -0.051635 1.470451 -0.000000 1 1 1
v 0.168988 1.070451 0.000000 1 1 1
v 0.119493 1.070451 -0.119493 1 1 1
v 0.119493 1.070451 0.119493 1 1 1
v 0.000000 1.070451 0.168988 1 1 1
v 0.000000 1.070451 -0.168988 1 1 1
v -0.119493 1.070451 0.119493 1 1 1
v -0.119493 1.070451 -0.119493 1 1 1
v -0.168988 1.070451 0.000000 1 1 1
v 0.211235 1.205451 0.000000 1 1 1
v 0.149366 1.205451 0.149366 1 1 1
v 0.000000 1.205451 -0.211235 1 1 1
v 0.149366 1.205451 -0.149366 1 1 1
v -0.149366 1.205451 -0.149366 1 1 1
v -0.211235 1.205451 0.000000 1 1 1
v 0.000000 1.205451 0.211235 1 1 1
v -0.149366 1.205451 0.149366 1 1 1
v 0.474810 0.454980 -0.000000 1 1 1
v 0.452200 0.386100 -0.000000 1 1 1
v 0.335741 0.454980 0.335741 1 1 1
v 0.319754 0.386100 0.319754 1 1 1
v 0.000000 0.386100 0.452200 1 1 1
v 0.000000 0.454980 0.474810 1 1 1
v 0.335741 0.454980 -0.335741 1 1 1
v 0.319754 0.386100 -0.319754 1 1 1
v 0.233548 0.532306 0.233548 1 1 1
v 0.000000 0.532306 0.330287 1 1 1
v 0.000000 0.454980 -0.474810 1 1 1
v 0.000000 0.532306 -0.330287 1 1 1
v -0.335741 0.454980 -0.335741 1 1 1
v -0.233548 0.532306 -0.233548 1 1 1
v 0.233548 0.532306 -0.233548 1 1 1
v 0.330287 0.532306 -0.000000 1 1 1
v -0.233548 0.532306 0.233548 1 1 1
v -0.335741 0.454980 0.335741 1 1 1
v -0.330287 0.532306 -0.000000 1 1 1
v -0.474810 0.454980 -0.000000 1 1 1
v -0.319754 0.386100 -0.319754 1 1 1
v 0.000000 0.386100 -0.452200 1 1 1
v -0.452200 0.386100 -0.000000 1 1 1
v -0.319754 0.386100 0.319754 1 1 1
v -0.252605 0.823406 -0.252605 1 1 1
v 0.000000 0.823406 -0.357238 1 1 1
v -0.265236 0.871119 -0.265236 1 1 1
v 0.000000 0.871119 -0.375100 1 1 1
v 0.000000 0.941714 0.260927 1 1 1
v 0.000000 0.871119 0.375100 1 1 1
v -0.184503 0.941714 0.184503 1 1 1
v -0.265236 0.871119 0.265236 1 1 1
v -0.184503 0.941714 -0.184503 1 1 1
v -0.260927 0.941714 -0.000000 1 1 1
v -0.375100 0.871119 -0.000000 1 1 1
v 0.000000 0.941714 -0.260927 1 1 1
v 0.375100 0.871119 -0.000000 1 1 1
v 0.260927 0.941714 -0.000000 1 1 1
v 0.265236 0.871119 -0.265236 1 1 1
v 0.184503 0.941714 -0.184503 1 1 1
v 0.265236 0.871119 0.265236 1 1 1
v 0.184503 0.941714 0.184503 1 1 1
v 0.252605 0.823406 -0.252605 1 1 1
v -0.357238 0.823406 -0.000000 1 1 1
v -0.252605 0.823406 0.252605 1 1 1
v 0.252605 0.823406 0.252605 1 1 1
v 0.000000 0.823406 0.357238 1 1 1
v 0.357238 0.823406 -0.000000 1 1 1
v -0.441765 0.008120 -0.441765 1 1 1
v -0.624750 0.008120 -0.000000 1 1 1
v -0.595000 -0.070000 -0.000000 1 1 1
v 0.000000 -0.070000 -0.595000 1 1 1
v 0.000000 0.008120 -0.624750 1 1 1
v -0.441765 0.008120 0.441765 1 1 1
v 0.000000 -0.070000 0.595000 1 1 1
v 0.000000 0.008120 0.624750 1 1 1
v 0.441765 0.008120 -0.441765 1 1 1
v 0.307300 0.124719 -0.307300 1 1 1
v 0.000000 0.124719 -0.434588 1 1 1
v -0.307300 0.124719 -0.307300 1 1 1
v -0.434588 0.124719 -0.000000 1 1 1
v 0.624750 0.008120 -0.000000 1 1 1
v 0.595000 -0.070000 -0.000000 1 1 1
v 0.441765 0.008120 0.441765 1 1 1
v 0.307300 0.124719 0.307300 1 1 1
v 0.000000 0.124719 0.434588 1 1 1
v -0.307300 0.124719 0.307300 1 1 1
v 0.434588 0.124719 -0.000000 1 1 1
v -0.000000 -0.500000 0.234000 1 1 1
v -0.165463 -0.500000 0.165463 1 1 1
v -0.000000 -0.396500 0.164000 1 1 1
v -0.115965 -0.396500 0.115965 1 1 1
v 0.234000 -0.500000 0.000000 1 1 1
v 0.165463 -0.500000 -0.165463 1 1 1
v 0.165463 -0.500000 0.165463 1 1 1
v -0.000000 -0.500000 -0.234000 1 1 1
v -0.165463 -0.500000 -0.165463 1 1 1
v -0.234000 -0.500000 0.000000 1 1 1
v 0.164000 -0.396500 0.000000 1 1 1
v 0.115965 -0.396500 0.115965 1 1 1
v 0.115965 -0.396500 -0.115965 1 1 1
v 0.000000 -0.155000 0.114000 1 1 1
v -0.080610 -0.155000 0.080610 1 1 1
v -0.114000 -0.155000 0.000000 1 1 1
v -0.164000 -0.396500 0.000000 1 1 1
v 0.114000 -0.155000 0.000000 1 1 1
v 0.080610 -0.155000 0.080610 1 1 1
v -0.000000 -0.396500 -0.164000 1 1 1
v 0.000000 -0.155000 -0.114000 1 1 1
v 0.080610 -0.155000 -0.080610 1 1 1
v -0.115965 -0.396500 -0.115965 1 1 1
v -0.080610 -0.155000 -0.080610 1 1 1

vn 0 -0.9999999 0
vn 0.8460914 -0.5330377 0
vn 0.598277 -0.5330377 0.598277
vn 0.9993024 0.03734373 0
vn 0.7066135 0.03734374 0.7066135
vn -0.598277 -0.5330377 -0.598277
vn 0 -0.5330377 -0.8460914
vn -0.7066135 0.03734374 -0.7066135
vn 0 0.03734373 -0.9993024
vn 0 -0.5330377 0.8460914
vn 0 0.03734373 0.9993024
vn -0.9993024 0.03734373 0
vn -0.8460914 -0.5330377 0
vn -0.598277 -0.5330377 0.598277
vn -0.7066135 0.03734374 0.7066135
vn 0.7066135 0.03734374 -0.7066135
vn 0.598277 -0.5330377 -0.598277
vn 0 0.9999999 0
vn -0.89111 0.4537873 0
vn -0.6301098 0.4537872 0.6301098
vn -0.6301098 0.4537872 -0.6301098
vn 0.6301098 0.4537872 -0.6301098
vn 0.89111 0.4537873 0
vn 0 0.4537873 -0.89111
vn 0.6301098 0.4537872 0.6301098
vn 0 0.4537873 0.89111
vn 0.6849834 0.2481842 0.6849834
vn 0 0.2481842 0.9687128
vn 0.9687128 0.2481842 0
vn 0.6849834 0.2481842 -0.6849834
vn 0 0.2481842 -0.9687128
vn -0.6849834 0.2481842 0.6849834
vn -0.9687128 0.2481842 0
vn -0.6849834 0.2481842 -0.6849834
vn 0 -1 0
vn 0.8460915 -0.5330377 0
vn 0.5982771 -0.5330377 0.5982771
vn 0.9993025 0.03734374 0
vn 0.7066136 0.03734374 0.7066136
vn -0.5982771 -0.5330377 -0.5982771
vn 0 -0.5330377 -0.8460915
vn -0.7066136 0.03734374 -0.7066136
vn 0 0.03734374 -0.9993025
vn 0 -0.5330377 0.8460915
vn 0 0.03734374 0.9993025
vn -0.9993025 0.03734374 0
vn -0.8460915 -0.5330377 0
vn -0.5982771 -0.5330377 0.5982771
vn -0.7066136 0.03734374 0.7066136
vn 0.7066136 0.03734374 -0.7066136
vn 0.5982771 -0.5330377 -0.5982771
vn -0.6037113 0.5206393 -0.6037113
vn 0 0.5206394 -0.8537768
vn -0.8537768 0.5206394 0
vn 0.6037113 0.5206393 0.6037113
vn 0 0.5206394 0.8537768
vn 0.6037113 0.5206393 -0.6037113
vn -0.6037113 0.5206393 0.6037113
vn 0.8537768 0.5206394 0
vn 0 1 0
vn -0.6365868 0.4353325 -0.6365868
vn 0 0.4353325 -0.9002697
vn 0.6365868 0.4353325 -0.6365868
vn 0.9002697 0.4353325 0
vn -0.9002697 0.4353325 0
vn -0.6365868 0.4353325 0.6365868
vn 0 0.4353325 0.9002697
vn 0.6365868 0.4353325 0.6365868
vn -0.8828417 0.4696708 0
vn -0.6242633 0.4696708 0.6242633
vn -0.6242633 0.4696708 -0.6242633
vn 0 0.4696708 -0.8828417
vn 0.6242633 0.4696708 0.6242633
vn 0 0.4696708 0.8828417
vn 0.8828417 0.4696708 0
vn 0.6242633 0.4696708 -0.6242633
vn -0.8911101 0.4537873 0
vn -0.6301099 0.4537873 0.6301099
vn -0.6301099 0.4537873 -0.6301099
vn 0.6301099 0.4537873 -0.6301099
vn 0.8911101 0.4537873 0
vn 0 0.4537873 -0.8911101
vn 0.6301099 0.4537873 0.6301099
vn 0 0.4537873 0.8911101
vn 0.6849834 0.2481842 0.6849834
vn 0 0.2481842 0.9687129
vn 0.9687129 0.2481842 0
vn 0.6849834 0.2481842 -0.6849834
vn 0 0.2481842 -0.9687129
vn -0.6849834 0.2481842 0.6849834
vn -0.9687129 0.2481842 0
vn -0.6849834 0.2481842 -0.6849834
vn -0.3736716 0.9021231 0.2157394
vn -0.379843 0.6502903 0.6579073
vn -0.7596859 0.6502902 0
vn 0 0.9021231 0.4314788
vn 0.379843 0.6502903 0.6579073
vn 0.379843 0.6502903 -0.6579073
vn 0.7596859 0.6502902 0
vn 0.3736716 0.9021231 -0.2157394
vn 0.3736716 0.9021231 0.2157394
vn 0 0.9021231 -0.4314788
vn -0.379843 0.6502903 -0.6579073
vn -0.3736716 0.9021231 -0.2157394
vn 0.7596859 -0.6502902 0
vn 0.379843 -0.6502903 -0.6579073
vn 0.3736716 -0.9021231 -0.2157394
vn 0.379843 -0.6502903 0.6579073
vn 0 -0.9021231 0.4314788
vn -0.379843 -0.6502903 0.6579073
vn -0.3736716 -0.9021231 0.2157394
vn -0.7596859 -0.6502902 0
vn 0.3736716 -0.9021231 0.2157394
vn -0.3736716 -0.9021231 -0.2157394
vn -0.379843 -0.6502903 -0.6579073
vn 0 -0.9021231 -0.4314788
vn -1 0 0
vn -0.5 0 0.8660254
vn 0.5 0 0.8660254
vn 1 0 0
vn 0.5 0 -0.8660254
vn -0.5 0 -0.8660254
vn 0.9645771 -0.2638008 0
vn 0.5877801 -0.8090208 0
vn -0.9510536 0.309026 0
vn -0.9048997 -0.425625 0
vn 0 0 1
vn 0.5489576 0.8358502 0
vn -0.7290851 0.684423 0
vn 0 0 -1
vn 0.7290851 0.684423 0
vn -0.5489576 0.8358502 0
vn -0.9645771 -0.2638008 0
vn 0.9048997 -0.425625 0
vn -0.1251655 -0.9921359 0
vn 0.9510593 0.3090087 0
vn -0.9510593 0.3090087 0
vn 0.1251655 -0.9921359 0
vn -0.5877801 -0.8090208 0
vn 0.9510536 0.309026 0
vn 0 0.2579721 -0.9661524
vn -0.6831729 0.2579721 -0.6831729
vn -0.9661524 0.2579721 0
vn 0.9661524 0.2579721 0
vn 0.6831729 0.2579721 -0.6831729
vn 0.6831729 0.2579721 0.6831729
vn -0.6831729 0.2579721 0.6831729
vn 0 0.2579721 0.9661524
vn 0.07281474 0.2717483 -0.9596097
vn -0.5826108 0.4473691 -0.6785465
vn -0.8540971 0.5201136 0
vn -0.5826108 0.4473691 0.6785465
vn 0.07281474 0.2717483 0.9596097
vn 0.7282404 0.09612754 0.6785465
vn 0.7282404 0.09612754 -0.6785465
vn 0.9997266 0.02338302 0
vn -0.04921346 0.3457919 -0.9370199
vn -0.7051765 0.2524345 -0.6625731
vn -0.9768854 0.2137646 0
vn -0.7051765 0.2524345 0.6625731
vn 0.6067496 0.4391492 0.6625731
vn -0.04921346 0.3457919 0.9370199
vn 0.6067496 0.4391492 -0.6625731
vn 0.8784584 0.4778191 0
vn -0.7262306 0.06678696 -0.6841992
vn -0.06534497 0.2438707 -0.9676037
vn -0.9999784 -0.006563559 0
vn -0.7262306 0.06678696 0.6841992
vn 0.5955406 0.4209545 0.6841992
vn -0.06534497 0.2438707 0.9676037
vn 0.5955406 0.4209545 -0.6841992
vn 0.8692884 0.494305 0
vn 0.5826108 -0.4473691 0.6785465
vn -0.07281474 -0.2717483 0.9596097
vn 0.5826108 -0.4473691 -0.6785465
vn 0.8540971 -0.5201136 0
vn -0.7282404 -0.09612754 -0.6785465
vn -0.07281474 -0.2717483 -0.9596097
vn -0.7282404 -0.09612754 0.6785465
vn -0.9997266 -0.02338302 0
vn 0.7051765 -0.2524345 0.6625731
vn 0.04921346 -0.3457919 0.9370199
vn 0.7051765 -0.2524345 -0.6625731
vn 0.9768854 -0.2137646 0
vn -0.6067496 -0.4391492 -0.6625731
vn 0.04921346 -0.3457919 -0.9370199
vn -0.6067496 -0.4391492 0.6625731
vn -0.8784584 -0.4778191 0
vn 0.7262306 -0.06678696 0.6841992
vn 0.06534497 -0.2438707 0.9676037
vn 0.7262306 -0.06678696 -0.6841992
vn 0.9999784 0.006563559 0
vn -0.5955406 -0.4209545 -0.6841992
vn 0.06534497 -0.2438707 -0.9676037
vn -0.5955406 -0.4209545 0.6841992
vn -0.8692884 -0.494305 0
vn 0.6724885 -0.7401076 0
vn 0.4755212 -0.7401076 -0.4755212
vn 0.4755212 -0.7401076 0.4755212
vn 0 -0.7401076 0.6724885
vn 0 -0.7401076 -0.6724885
vn -0.4755212 -0.7401076 0.4755212
vn -0.4755212 -0.7401076 -0.4755212
vn -0.6724885 -0.7401076 0
vn 0.9940655 0.1087825 0
vn 0.7029105 0.1087825 0.7029105
vn 0 0.1087825 -0.9940655
vn 0.7029105 0.1087825 -0.7029105
vn -0.7029105 0.1087825 -0.7029105
vn -0.9940655 0.1087825 0
vn 0 0.1087825 0.9940655
vn -0.7029105 0.1087825 0.7029105
vn 0.6057335 0.5159203 -0.6057335
vn 0.8566365 0.5159203 0
vn -0.8566365 0.5159203 0
vn -0.6057335 0.5159203 0.6057335
vn 0 0.5159203 0.8566365
vn -0.6057335 0.5159203 -0.6057335
vn 0 0.5159203 -0.8566365
vn 0.6057335 0.5159203 0.6057335
vn 0.945047 0.3269348 0
vn 0.9501218 -0.3118794 0
vn 0.6682491 0.3269348 0.6682491
vn 0.6718375 -0.3118794 0.6718375
vn 0 -0.3118794 0.9501218
vn 0 0.3269348 0.945047
vn 0.6682491 0.3269348 -0.6682491
vn 0.6718375 -0.3118794 -0.6718375
vn 0.3335861 0.8817259 0.3335861
vn 0 0.8817259 0.471762
vn 0 0.3269348 -0.945047
vn 0 0.8817259 -0.471762
vn -0.6682491 0.3269348 -0.6682491
vn -0.3335861 0.8817259 -0.3335861
vn 0.3335861 0.8817259 -0.3335861
vn 0.471762 0.8817259 0
vn -0.3335861 0.8817259 0.3335861
vn -0.6682491 0.3269348 0.6682491
vn -0.471762 0.8817259 0
vn -0.945047 0.3269348 0
vn -0.6718375 -0.3118794 -0.6718375
vn 0 -0.3118794 -0.9501218
vn -0.9501218 -0.3118794 0
vn -0.6718375 -0.3118794 0.6718375
vn -0.6622238 -0.3505987 -0.6622238
vn 0 -0.3505986 -0.9365258
vn -0.6779521 0.2841863 -0.6779521
vn 0 0.2841863 -0.9587691
vn 0 0.8505468 0.5258994
vn 0 0.2841863 0.9587691
vn -0.371867 0.8505468 0.371867
vn -0.6779521 0.2841863 0.6779521
vn -0.371867 0.8505468 -0.371867
vn -0.5258994 0.8505468 0
vn -0.9587691 0.2841863 0
vn 0 0.8505468 -0.5258994
vn 0.9587691 0.2841863 0
vn 0.5258994 0.8505468 0
vn 0.6779521 0.2841863 -0.6779521
vn 0.371867 0.8505468 -0.371867
vn 0.6779521 0.2841863 0.6779521
vn 0.371867 0.8505468 0.371867
vn 0.6622238 -0.3505987 -0.6622238
vn -0.9365258 -0.3505986 0
vn -0.6622238 -0.3505987 0.6622238
vn 0.6622238 -0.3505987 0.6622238
vn 0 -0.3505986 0.9365258
vn 0.9365258 -0.3505986 0
vn -0.6781597 0.2831938 -0.6781597
vn -0.9590627 0.2831938 0
vn -0.6608108 -0.3558909 -0.6608108
vn -0.9345275 -0.3558909 0
vn 0 -0.3558909 -0.9345275
vn 0 0.2831938 -0.9590627
vn -0.6781597 0.2831938 0.6781597
vn -0.6608108 -0.3558909 0.6608108
vn 0 -0.3558909 0.9345275
vn 0 0.2831938 0.9590627
vn 0.6781597 0.2831938 -0.6781597
vn 0.3696174 0.8525057 -0.3696174
vn 0 0.8525057 -0.522718
vn -0.3696174 0.8525057 -0.3696174
vn -0.522718 0.8525057 0
vn 0.9590627 0.2831938 0
vn 0.9345275 -0.3558909 0
vn 0.6781597 0.2831938 0.6781597
vn 0.6608108 -0.3558909 0.6608108
vn 0.3696174 0.8525057 0.3696174
vn 0 0.8525057 0.522718
vn -0.3696174 0.8525057 0.3696174
vn 0.522718 0.8525057 0
vn 0.6608108 -0.3558909 -0.6608108
vn 0 0.5602286 0.828338
vn -0.5857235 0.5602286 0.5857235
vn 0.828338 0.5602286 0
vn 0.5857235 0.5602286 0.5857235
vn 0.5857235 0.5602286 -0.5857235
vn 0 0.2027397 0.9792326
vn -0.692422 0.2027397 0.692422
vn -0.9792326 0.2027397 0
vn 0.9792326 0.2027397 0
vn 0.692422 0.2027397 0.692422
vn 0 0.2027397 -0.9792326
vn 0.692422 0.2027397 -0.692422
vn -0.692422 0.2027397 -0.692422
vn -0.828338 0.5602286 0
vn -0.5857235 0.5602286 -0.5857235
vn 0 0.5602286 -0.828338

vt 0.71875 0.275
vt 0.71875 0.3016667
vt 0.71875 0.475
vt 0.71875 0.3683333
vt 0.71875 0.2907493
vt 0.71875 0.3301226
vt 0.71875 0.4132791
vt 0.71875 0.2883333
vt 0.71875 0.375
vt 0.71875 0.3216667
vt 0.84375 0.475
vt 0.84375 0.4457107
vt 0.84375 0.3042893
vt 0.84375 0.275
vt 0.84375 0.375
vt 0.84375 0.4318502
vt 0.84375 0.411062
vt 0.84375 0.3786435
vt 0.84375 0.3936539
vt 0.84375 0.3785117
vt 0.84375 0.3750962
vt 0.84375 0.4316429
vt 0.84375 0.4392284
vt 0.84375 0.4736363
vt 0.84375 0.4734657
vt 0.46875 0.025
vt 0.46875 0.05428933
vt 0.46875 0.1957107
vt 0.46875 0.225
vt 0.46875 0.125
vt 0.46875 0.275
vt 0.46875 0.475
vt 0.09375 0.225
vt 0.09375 0.025
vt 0.09375 0.0925
vt 0.09375 0.1192231
vt 0.09375 0.1056596
vt 0.09375 0.1052388
vt 0.21875 0.475
vt 0.21875 0.415
vt 0.21875 0.275

usemtl colormap

f 3/1/1 2/1/1 1/1/1
f 2/1/1 3/1/1 4/1/1
f 4/1/1 3/1/1 5/1/1
f 4/1/1 5/1/1 6/1/1
f 4/1/1 6/1/1 7/1/1
f 7/1/1 6/1/1 8/1/1
f 9/2/4 3/1/3 1/1/2
f 3/1/3 9/2/4 10/2/5
f 11/2/8 4/1/7 7/1/6
f 4/1/7 11/2/8 12/2/9
f 10/2/5 5/1/10 3/1/3
f 5/1/10 10/2/5 13/2/11
f 7/1/6 14/2/12 11/2/8
f 14/2/12 7/1/6 8/1/13
f 13/2/11 6/1/14 5/1/10
f 6/1/14 13/2/11 15/2/15
f 9/2/4 2/1/17 16/2/16
f 2/1/17 9/2/4 1/1/2
f 12/2/9 2/1/17 4/1/7
f 2/1/17 12/2/9 16/2/16
f 6/1/14 14/2/12 8/1/13
f 14/2/12 6/1/14 15/2/15
f 19/3/18 18/3/18 17/3/18
f 18/3/18 19/3/18 20/3/18
f 18/3/18 20/3/18 21/3/18
f 21/3/18 20/3/18 22/3/18
f 21/3/18 22/3/18 23/3/18
f 23/3/18 22/3/18 24/3/18
f 14/2/12 26/4/20 25/4/19
f 26/4/20 14/2/12 15/2/15
f 14/2/12 27/4/21 11/2/8
f 27/4/21 14/2/12 25/4/19
f 28/4/22 9/2/4 16/2/16
f 9/2/4 28/4/22 29/4/23
f 27/4/21 12/2/9 11/2/8
f 12/2/9 27/4/21 30/4/24
f 18/3/27 32/4/26 31/4/25
f 32/4/26 18/3/27 21/3/28
f 18/3/27 29/4/23 17/3/29
f 29/4/23 18/3/27 31/4/25
f 19/3/30 29/4/23 28/4/22
f 29/4/23 19/3/30 17/3/29
f 20/3/31 28/4/22 30/4/24
f 28/4/22 20/3/31 19/3/30
f 21/3/28 26/4/20 32/4/26
f 26/4/20 21/3/28 23/3/32
f 25/4/19 23/3/32 24/3/33
f 23/3/32 25/4/19 26/4/20
f 25/4/19 22/3/34 27/4/21
f 22/3/34 25/4/19 24/3/33
f 31/4/25 9/2/4 29/4/23
f 9/2/4 31/4/25 10/2/5
f 31/4/25 13/2/11 10/2/5
f 13/2/11 31/4/25 32/4/26
f 30/4/24 16/2/16 12/2/9
f 16/2/16 30/4/24 28/4/22
f 22/3/34 30/4/24 27/4/21
f 30/4/24 22/3/34 20/3/31
f 32/4/26 15/2/15 13/2/11
f 15/2/15 32/4/26 26/4/20
f 35/1/35 34/1/35 33/1/35
f 34/1/35 35/1/35 36/1/35
f 36/1/35 35/1/35 37/1/35
f 36/1/35 37/1/35 38/1/35
f 36/1/35 38/1/35 39/1/35
f 39/1/35 38/1/35 40/1/35
f 41/5/38 35/1/37 33/1/36
f 35/1/37 41/5/38 42/5/39
f 43/5/42 36/1/41 39/1/40
f 36/1/41 43/5/42 44/5/43
f 42/5/39 37/1/44 35/1/37
f 37/1/44 42/5/39 45/5/45
f 39/1/40 46/5/46 43/5/42
f 46/5/46 39/1/40 40/1/47
f 45/5/45 38/1/48 37/1/44
f 38/1/48 45/5/45 47/5/49
f 41/5/38 34/1/51 48/5/50
f 34/1/51 41/5/38 33/1/36
f 44/5/43 34/1/51 36/1/41
f 34/1/51 44/5/43 48/5/50
f 38/1/48 46/5/46 40/1/47
f 46/5/46 38/1/48 47/5/49
f 49/6/52 44/5/43 43/5/42
f 44/5/43 49/6/52 50/6/53
f 46/5/46 49/6/52 43/5/42
f 49/6/52 46/5/46 51/6/54
f 52/6/55 45/5/45 42/5/39
f 45/5/45 52/6/55 53/6/56
f 50/6/53 48/5/50 44/5/43
f 48/5/50 50/6/53 54/6/57
f 47/5/49 51/6/54 46/5/46
f 51/6/54 47/5/49 55/6/58
f 54/6/57 41/5/38 48/5/50
f 41/5/38 54/6/57 56/6/59
f 53/6/56 47/5/49 45/5/45
f 47/5/49 53/6/56 55/6/58
f 52/6/55 41/5/38 56/6/59
f 41/5/38 52/6/55 42/5/39
f 59/3/60 58/3/60 57/3/60
f 58/3/60 59/3/60 60/3/60
f 58/3/60 60/3/60 61/3/60
f 61/3/60 60/3/60 62/3/60
f 61/3/60 62/3/60 63/3/60
f 63/3/60 62/3/60 64/3/60
f 65/7/61 50/6/53 49/6/52
f 50/6/53 65/7/61 66/7/62
f 67/7/63 56/6/59 54/6/57
f 56/6/59 67/7/63 68/7/64
f 55/6/58 69/7/65 51/6/54
f 69/7/65 55/6/58 70/7/66
f 66/7/62 54/6/57 50/6/53
f 54/6/57 66/7/62 67/7/63
f 71/7/67 55/6/58 53/6/56
f 55/6/58 71/7/67 70/7/66
f 51/6/54 65/7/61 49/6/52
f 65/7/61 51/6/54 69/7/65
f 68/7/64 52/6/55 56/6/59
f 52/6/55 68/7/64 72/7/68
f 72/7/68 53/6/56 52/6/55
f 53/6/56 72/7/68 71/7/67
f 69/7/65 63/3/70 64/3/69
f 63/3/70 69/7/65 70/7/66
f 62/3/71 66/7/62 65/7/61
f 66/7/62 62/3/71 60/3/72
f 58/3/73 71/7/67 72/7/68
f 71/7/67 58/3/73 61/3/74
f 61/3/74 70/7/66 71/7/67
f 70/7/66 61/3/74 63/3/70
f 58/3/73 68/7/64 57/3/75
f 68/7/64 58/3/73 72/7/68
f 60/3/72 67/7/63 66/7/62
f 67/7/63 60/3/72 59/3/76
f 69/7/65 62/3/71 65/7/61
f 62/3/71 69/7/65 64/3/69
f 59/3/76 68/7/64 67/7/63
f 68/7/64 59/3/76 57/3/75
f 75/1/35 74/1/35 73/1/35
f 74/1/35 75/1/35 76/1/35
f 76/1/35 75/1/35 77/1/35
f 76/1/35 77/1/35 78/1/35
f 76/1/35 78/1/35 79/1/35
f 79/1/35 78/1/35 80/1/35
f 81/8/38 75/1/37 73/1/36
f 75/1/37 81/8/38 82/8/39
f 83/8/42 76/1/41 79/1/40
f 76/1/41 83/8/42 84/8/43
f 82/8/39 77/1/44 75/1/37
f 77/1/44 82/8/39 85/8/45
f 79/1/40 86/8/46 83/8/42
f 86/8/46 79/1/40 80/1/47
f 85/8/45 78/1/48 77/1/44
f 78/1/48 85/8/45 87/8/49
f 81/8/38 74/1/51 88/8/50
f 74/1/51 81/8/38 73/1/36
f 84/8/43 74/1/51 76/1/41
f 74/1/51 84/8/43 88/8/50
f 78/1/48 86/8/46 80/1/47
f 86/8/46 78/1/48 87/8/49
f 91/9/60 90/9/60 89/9/60
f 90/9/60 91/9/60 92/9/60
f 90/9/60 92/9/60 93/9/60
f 93/9/60 92/9/60 94/9/60
f 93/9/60 94/9/60 95/9/60
f 95/9/60 94/9/60 96/9/60
f 86/8/46 98/10/78 97/10/77
f 98/10/78 86/8/46 87/8/49
f 86/8/46 99/10/79 83/8/42
f 99/10/79 86/8/46 97/10/77
f 100/10/80 81/8/38 88/8/50
f 81/8/38 100/10/80 101/10/81
f 99/10/79 84/8/43 83/8/42
f 84/8/43 99/10/79 102/10/82
f 90/9/85 104/10/84 103/10/83
f 104/10/84 90/9/85 93/9/86
f 90/9/85 101/10/81 89/9/87
f 101/10/81 90/9/85 103/10/83
f 91/9/88 101/10/81 100/10/80
f 101/10/81 91/9/88 89/9/87
f 92/9/89 100/10/80 102/10/82
f 100/10/80 92/9/89 91/9/88
f 93/9/86 98/10/78 104/10/84
f 98/10/78 93/9/86 95/9/90
f 97/10/77 95/9/90 96/9/91
f 95/9/90 97/10/77 98/10/78
f 97/10/77 94/9/92 99/10/79
f 94/9/92 97/10/77 96/9/91
f 103/10/83 81/8/38 101/10/81
f 81/8/38 103/10/83 82/8/39
f 103/10/83 85/8/45 82/8/39
f 85/8/45 103/10/83 104/10/84
f 102/10/82 88/8/50 84/8/43
f 88/8/50 102/10/82 100/10/80
f 94/9/92 102/10/82 99/10/79
f 102/10/82 94/9/92 92/9/89
f 104/10/84 87/8/49 85/8/45
f 87/8/49 104/10/84 98/10/78
f 107/12/95 106/12/94 105/11/93
f 106/12/94 108/12/97 105/11/96
f 105/11/100 110/12/99 109/12/98
f 105/11/101 108/12/97 110/12/99
f 111/12/103 105/11/102 109/12/98
f 107/12/95 105/11/104 111/12/103
f 114/14/107 113/13/106 112/13/105
f 116/13/110 114/14/109 115/13/108
f 117/13/112 114/14/111 116/13/110
f 114/14/113 112/13/105 115/13/108
f 117/13/112 118/13/115 114/14/114
f 118/13/115 113/13/106 114/14/116
f 120/15/118 107/12/95 119/15/117
f 107/12/95 120/15/118 106/12/94
f 108/12/97 120/15/118 121/15/119
f 120/15/118 108/12/97 106/12/94
f 108/12/97 122/15/120 110/12/99
f 122/15/120 108/12/97 121/15/119
f 116/13/110 119/15/117 117/13/112
f 119/15/117 116/13/110 120/15/118
f 121/15/119 116/13/110 115/13/108
f 116/13/110 121/15/119 120/15/118
f 121/15/119 112/13/105 122/15/120
f 112/13/105 121/15/119 115/13/108
f 122/15/120 113/13/106 123/15/121
f 113/13/106 122/15/120 112/13/105
f 111/12/103 123/15/121 124/15/122
f 123/15/121 111/12/103 109/12/98
f 124/15/122 113/13/106 118/13/115
f 113/13/106 124/15/122 123/15/121
f 119/15/117 111/12/103 124/15/122
f 111/12/103 119/15/117 107/12/95
f 109/12/98 122/15/120 123/15/121
f 122/15/120 109/12/98 110/12/99
f 118/13/115 119/15/117 124/15/122
f 119/15/117 118/13/115 117/13/112
f 127/13/115 126/13/106 125/14/116
f 129/13/112 125/14/111 128/13/110
f 132/11/101 131/12/97 130/12/99
f 133/12/94 131/12/97 132/11/96
f 128/13/110 125/14/109 134/13/108
f 136/12/103 132/11/102 135/12/98
f 125/14/107 126/13/106 137/13/105
f 129/13/112 127/13/115 125/14/114
f 138/12/95 132/11/104 136/12/103
f 132/11/100 130/12/99 135/12/98
f 138/12/95 133/12/94 132/11/93
f 125/14/113 137/13/105 134/13/108
f 140/15/120 126/13/106 139/15/121
f 126/13/106 140/15/120 137/13/105
f 131/12/97 140/15/120 130/12/99
f 140/15/120 131/12/97 141/15/119
f 136/12/103 139/15/121 142/15/122
f 139/15/121 136/12/103 135/12/98
f 142/15/122 126/13/106 127/13/115
f 126/13/106 142/15/122 139/15/121
f 143/15/117 136/12/103 142/15/122
f 136/12/103 143/15/117 138/12/95
f 141/15/119 137/13/105 140/15/120
f 137/13/105 141/15/119 134/13/108
f 135/12/98 140/15/120 139/15/121
f 140/15/120 135/12/98 130/12/99
f 127/13/115 143/15/117 142/15/122
f 143/15/117 127/13/115 129/13/112
f 131/12/97 144/15/118 141/15/119
f 144/15/118 131/12/97 133/12/94
f 144/15/118 138/12/95 143/15/117
f 138/12/95 144/15/118 133/12/94
f 141/15/119 128/13/110 134/13/108
f 128/13/110 141/15/119 144/15/118
f 128/13/110 143/15/117 129/13/112
f 143/15/117 128/13/110 144/15/118
f 147/13/112 146/14/111 145/13/110
f 150/12/95 149/11/104 148/12/103
f 152/13/115 151/13/106 146/14/116
f 147/13/112 152/13/115 146/14/114
f 149/11/101 154/12/97 153/12/99
f 145/13/110 146/14/109 155/13/108
f 146/14/113 156/13/105 155/13/108
f 149/11/100 153/12/99 157/12/98
f 150/12/95 158/12/94 149/11/93
f 148/12/103 149/11/102 157/12/98
f 158/12/94 154/12/97 149/11/96
f 146/14/107 151/13/106 156/13/105
f 145/13/110 159/15/117 147/13/112
f 159/15/117 145/13/110 160/15/118
f 154/12/97 161/15/120 153/12/99
f 161/15/120 154/12/97 162/15/119
f 148/12/103 164/15/121 163/15/122
f 164/15/121 148/12/103 157/12/98
f 160/15/118 150/12/95 159/15/117
f 150/12/95 160/15/118 158/12/94
f 154/12/97 160/15/118 162/15/119
f 160/15/118 154/12/97 158/12/94
f 157/12/98 161/15/120 164/15/121
f 161/15/120 157/12/98 153/12/99
f 159/15/117 148/12/103 163/15/122
f 148/12/103 159/15/117 150/12/95
f 162/15/119 145/13/110 155/13/108
f 145/13/110 162/15/119 160/15/118
f 162/15/119 156/13/105 161/15/120
f 156/13/105 162/15/119 155/13/108
f 163/15/122 151/13/106 152/13/115
f 151/13/106 163/15/122 164/15/121
f 161/15/120 151/13/106 164/15/121
f 151/13/106 161/15/120 156/13/105
f 152/13/115 159/15/117 163/15/122
f 159/15/117 152/13/115 147/13/112
f 167/17/124 166/16/123 165/16/123
f 166/16/123 167/17/124 168/17/124
f 171/18/126 170/17/125 169/17/125
f 170/17/125 171/18/126 172/18/126
f 175/20/127 174/19/127 173/15/127
f 174/19/127 175/20/127 167/17/127
f 170/17/127 174/19/127 167/17/127
f 170/17/127 167/17/127 165/16/127
f 172/18/127 174/19/127 170/17/127
f 174/19/127 172/18/127 176/21/127
f 170/17/127 165/16/127 177/22/127
f 177/22/127 165/16/127 178/23/127
f 178/23/127 165/16/127 179/23/127
f 178/23/127 179/23/127 180/23/127
f 178/23/127 180/23/127 181/23/127
f 182/24/127 181/23/127 180/23/127
f 181/23/127 182/24/127 183/25/127
f 183/25/127 182/24/127 184/11/127
f 179/23/128 166/16/123 185/23/128
f 166/16/123 179/23/128 165/16/123
f 187/25/129 184/11/60 186/11/60
f 184/11/60 187/25/129 183/25/129
f 171/18/130 189/19/130 188/21/130
f 189/19/130 171/18/130 169/17/130
f 168/17/130 189/19/130 169/17/130
f 168/17/130 169/17/130 190/22/130
f 191/20/130 189/19/130 168/17/130
f 189/19/130 191/20/130 192/15/130
f 168/17/130 190/22/130 166/16/130
f 166/16/130 190/22/130 193/23/130
f 166/16/130 193/23/130 185/23/130
f 185/23/130 193/23/130 194/23/130
f 185/23/130 194/23/130 195/23/130
f 187/25/130 195/23/130 194/23/130
f 195/23/130 187/25/130 196/24/130
f 196/24/130 187/25/130 186/11/130
f 186/11/60 182/24/131 196/24/131
f 182/24/131 186/11/60 184/11/60
f 193/23/132 181/23/60 194/23/60
f 181/23/60 193/23/132 178/23/132
f 177/22/133 193/23/132 190/22/133
f 193/23/132 177/22/133 178/23/132
f 173/15/135 191/20/134 175/20/134
f 191/20/134 173/15/135 192/15/135
f 195/23/60 179/23/128 185/23/128
f 179/23/128 195/23/60 180/23/60
f 182/24/131 195/23/136 196/24/131
f 195/23/136 182/24/131 180/23/136
f 194/23/137 183/25/129 187/25/129
f 183/25/129 194/23/137 181/23/137
f 172/18/126 188/21/138 176/21/138
f 188/21/138 172/18/126 171/18/126
f 176/21/138 189/19/124 174/19/124
f 189/19/124 176/21/138 188/21/138
f 174/19/139 192/15/135 173/15/135
f 192/15/135 174/19/139 189/19/139
f 167/17/140 191/20/134 168/17/140
f 191/20/134 167/17/140 175/20/134
f 177/22/133 169/17/139 170/17/139
f 169/17/139 177/22/133 190/22/133
f 199/11/35 198/11/35 197/11/35
f 198/11/35 199/11/35 200/11/35
f 198/11/35 200/11/35 201/11/35
f 201/11/35 200/11/35 202/11/35
f 201/11/35 202/11/35 203/11/35
f 203/11/35 202/11/35 204/11/35
f 207/14/60 206/14/60 205/14/60
f 206/14/60 207/14/60 208/14/60
f 206/14/60 208/14/60 209/14/60
f 209/14/60 208/14/60 210/14/60
f 209/14/60 210/14/60 211/14/60
f 211/14/60 210/14/60 212/14/60
f 201/11/141 210/14/142 208/14/141
f 210/14/142 201/11/141 203/11/142
f 203/11/142 212/14/143 210/14/142
f 212/14/143 203/11/142 204/11/143
f 198/11/145 205/14/144 197/11/144
f 205/14/144 198/11/145 207/14/145
f 205/14/144 199/11/146 197/11/144
f 199/11/146 205/14/144 206/14/146
f 212/14/143 202/11/147 211/14/147
f 202/11/147 212/14/143 204/11/143
f 201/11/141 207/14/145 198/11/145
f 207/14/145 201/11/141 208/14/141
f 211/14/147 200/11/148 209/14/148
f 200/11/148 211/14/147 202/11/147
f 206/14/146 200/11/148 199/11/146
f 200/11/148 206/14/146 209/14/148
f 215/27/112 214/27/115 213/26/114
f 215/27/112 213/26/111 216/27/110
f 216/27/110 213/26/109 217/27/108
f 220/28/103 219/29/102 218/28/98
f 213/26/107 222/27/106 221/27/105
f 214/27/115 222/27/106 213/26/116
f 224/28/95 223/28/94 219/29/93
f 224/28/95 219/29/104 220/28/103
f 223/28/94 225/28/97 219/29/96
f 219/29/100 226/28/99 218/28/98
f 213/26/113 221/27/105 217/27/108
f 219/29/101 225/28/97 226/28/99
f 228/30/120 222/27/106 227/30/121
f 222/27/106 228/30/120 221/27/105
f 214/27/115 230/30/117 229/30/122
f 230/30/117 214/27/115 215/27/112
f 225/28/97 232/30/118 231/30/119
f 232/30/118 225/28/97 223/28/94
f 229/30/122 222/27/106 214/27/115
f 222/27/106 229/30/122 227/30/121
f 232/30/118 224/28/95 230/30/117
f 224/28/95 232/30/118 223/28/94
f 231/30/119 221/27/105 228/30/120
f 221/27/105 231/30/119 217/27/108
f 218/28/98 228/30/120 227/30/121
f 228/30/120 218/28/98 226/28/99
f 220/28/103 227/30/121 229/30/122
f 227/30/121 220/28/103 218/28/98
f 230/30/117 220/28/103 229/30/122
f 220/28/103 230/30/117 224/28/95
f 216/27/110 230/30/117 215/27/112
f 230/30/117 216/27/110 232/30/118
f 225/28/97 228/30/120 226/28/99
f 228/30/120 225/28/97 231/30/119
f 231/30/119 216/27/110 217/27/108
f 216/27/110 231/30/119 232/30/118
f 235/28/103 234/29/102 233/28/98
f 236/28/95 234/29/104 235/28/103
f 239/27/112 238/26/111 237/27/110
f 238/26/107 241/27/106 240/27/105
f 238/26/113 240/27/105 242/27/108
f 237/27/110 238/26/109 242/27/108
f 243/27/115 241/27/106 238/26/116
f 239/27/112 243/27/115 238/26/114
f 236/28/95 244/28/94 234/29/93
f 244/28/94 245/28/97 234/29/96
f 234/29/101 245/28/97 246/28/99
f 234/29/100 246/28/99 233/28/98
f 245/28/97 248/30/118 247/30/119
f 248/30/118 245/28/97 244/28/94
f 233/28/98 250/30/120 249/30/121
f 250/30/120 233/28/98 246/28/99
f 245/28/97 250/30/120 246/28/99
f 250/30/120 245/28/97 247/30/119
f 235/28/103 249/30/121 251/30/122
f 249/30/121 235/28/103 233/28/98
f 248/30/118 236/28/95 252/30/117
f 236/28/95 248/30/118 244/28/94
f 252/30/117 235/28/103 251/30/122
f 235/28/103 252/30/117 236/28/95
f 247/30/119 237/27/110 242/27/108
f 237/27/110 247/30/119 248/30/118
f 251/30/122 241/27/106 243/27/115
f 241/27/106 251/30/122 249/30/121
f 247/30/119 240/27/105 250/30/120
f 240/27/105 247/30/119 242/27/108
f 237/27/110 252/30/117 239/27/112
f 252/30/117 237/27/110 248/30/118
f 250/30/120 241/27/106 249/30/121
f 241/27/106 250/30/120 240/27/105
f 243/27/115 252/30/117 251/30/122
f 252/30/117 243/27/115 239/27/112
f 255/28/103 254/29/102 253/28/98
f 256/28/95 254/29/104 255/28/103
f 259/27/112 258/26/111 257/27/110
f 258/26/107 261/27/106 260/27/105
f 258/26/113 260/27/105 262/27/108
f 257/27/110 258/26/109 262/27/108
f 263/27/115 261/27/106 258/26/116
f 259/27/112 263/27/115 258/26/114
f 256/28/95 264/28/94 254/29/93
f 264/28/94 265/28/97 254/29/96
f 254/29/101 265/28/97 266/28/99
f 254/29/100 266/28/99 253/28/98
f 265/28/97 268/30/118 267/30/119
f 268/30/118 265/28/97 264/28/94
f 253/28/98 270/30/120 269/30/121
f 270/30/120 253/28/98 266/28/99
f 265/28/97 270/30/120 266/28/99
f 270/30/120 265/28/97 267/30/119
f 255/28/103 269/30/121 271/30/122
f 269/30/121 255/28/103 253/28/98
f 268/30/118 256/28/95 272/30/117
f 256/28/95 268/30/118 264/28/94
f 272/30/117 255/28/103 271/30/122
f 255/28/103 272/30/117 256/28/95
f 267/30/119 257/27/110 262/27/108
f 257/27/110 267/30/119 268/30/118
f 271/30/122 261/27/106 263/27/115
f 261/27/106 271/30/122 269/30/121
f 267/30/119 260/27/105 270/30/120
f 260/27/105 267/30/119 262/27/108
f 257/27/110 272/30/117 259/27/112
f 272/30/117 257/27/110 268/30/118
f 270/30/120 261/27/106 269/30/121
f 261/27/106 270/30/120 260/27/105
f 263/27/115 272/30/117 271/30/122
f 272/30/117 263/27/115 259/27/112
f 275/26/150 274/29/149 273/26/149
f 274/29/149 275/26/150 276/29/150
f 279/26/152 278/29/151 277/26/151
f 278/29/151 279/26/152 280/29/152
f 283/26/154 282/29/153 281/26/153
f 282/29/153 283/26/154 284/29/154
f 287/29/155 286/26/156 285/26/155
f 286/26/156 287/29/155 288/29/156
f 284/29/154 286/26/156 288/29/156
f 286/26/156 284/29/154 283/26/154
f 277/26/151 276/29/150 275/26/150
f 276/29/150 277/26/151 278/29/151
f 282/29/153 279/26/152 281/26/153
f 279/26/152 282/29/153 280/29/152
f 274/29/149 285/26/155 273/26/149
f 285/26/155 274/29/149 287/29/155
f 291/26/158 290/29/157 289/26/157
f 290/29/157 291/26/158 292/29/158
f 295/26/160 294/29/159 293/26/159
f 294/29/159 295/26/160 296/29/160
f 299/29/161 298/26/162 297/26/161
f 298/26/162 299/29/161 300/29/162
f 303/29/163 302/26/164 301/26/163
f 302/26/164 303/29/163 304/29/164
f 299/29/161 302/26/164 304/29/164
f 302/26/164 299/29/161 297/26/161
f 293/26/159 292/29/158 291/26/158
f 292/29/158 293/26/159 294/29/159
f 300/29/162 295/26/160 298/26/162
f 295/26/160 300/29/162 296/29/160
f 289/26/157 303/29/163 301/26/163
f 303/29/163 289/26/157 290/29/157
f 307/29/165 306/26/166 305/26/165
f 306/26/166 307/29/165 308/29/166
f 311/26/168 310/29/167 309/26/167
f 310/29/167 311/26/168 312/29/168
f 315/29/169 314/26/170 313/26/169
f 314/26/170 315/29/169 316/29/170
f 319/29/171 318/26/172 317/26/171
f 318/26/172 319/29/171 320/29/172
f 315/29/169 318/26/172 320/29/172
f 318/26/172 315/29/169 313/26/169
f 309/26/167 307/29/165 305/26/165
f 307/29/165 309/26/167 310/29/167
f 316/29/170 311/26/168 314/26/170
f 311/26/168 316/29/170 312/29/168
f 308/29/166 317/26/171 306/26/166
f 317/26/171 308/29/166 319/29/171
f 323/28/103 322/29/102 321/28/98
f 324/28/95 322/29/104 323/28/103
f 327/27/112 326/26/111 325/27/110
f 326/26/107 329/27/106 328/27/105
f 326/26/113 328/27/105 330/27/108
f 325/27/110 326/26/109 330/27/108
f 331/27/115 329/27/106 326/26/116
f 327/27/112 331/27/115 326/26/114
f 324/28/95 332/28/94 322/29/93
f 332/28/94 333/28/97 322/29/96
f 322/29/101 333/28/97 334/28/99
f 322/29/100 334/28/99 321/28/98
f 333/28/97 336/30/118 335/30/119
f 336/30/118 333/28/97 332/28/94
f 321/28/98 338/30/120 337/30/121
f 338/30/120 321/28/98 334/28/99
f 333/28/97 338/30/120 334/28/99
f 338/30/120 333/28/97 335/30/119
f 323/28/103 337/30/121 339/30/122
f 337/30/121 323/28/103 321/28/98
f 336/30/118 324/28/95 340/30/117
f 324/28/95 336/30/118 332/28/94
f 340/30/117 323/28/103 339/30/122
f 323/28/103 340/30/117 324/28/95
f 335/30/119 325/27/110 330/27/108
f 325/27/110 335/30/119 336/30/118
f 339/30/122 329/27/106 331/27/115
f 329/27/106 339/30/122 337/30/121
f 335/30/119 328/27/105 338/30/120
f 328/27/105 335/30/119 330/27/108
f 325/27/110 340/30/117 327/27/112
f 340/30/117 325/27/110 336/30/118
f 338/30/120 329/27/106 337/30/121
f 329/27/106 338/30/120 328/27/105
f 331/27/115 340/30/117 339/30/122
f 340/30/117 331/27/115 327/27/112
f 273/31/174 274/32/174 275/31/173
f 276/32/173 275/31/173 274/32/174
f 277/31/176 278/32/176 279/31/175
f 280/32/175 279/31/175 278/32/176
f 281/31/178 282/32/178 283/31/177
f 284/32/177 283/31/177 282/32/178
f 285/31/179 286/31/180 287/32/179
f 288/32/180 287/32/179 286/31/180
f 288/32/180 286/31/180 284/32/177
f 283/31/177 284/32/177 286/31/180
f 275/31/173 276/32/173 277/31/176
f 278/32/176 277/31/176 276/32/173
f 281/31/178 279/31/175 282/32/178
f 280/32/175 282/32/178 279/31/175
f 273/31/174 285/31/179 274/32/174
f 287/32/179 274/32/174 285/31/179
f 289/31/182 290/32/182 291/31/181
f 292/32/181 291/31/181 290/32/182
f 293/31/184 294/32/184 295/31/183
f 296/32/183 295/31/183 294/32/184
f 297/31/185 298/31/186 299/32/185
f 300/32/186 299/32/185 298/31/186
f 301/31/187 302/31/188 303/32/187
f 304/32/188 303/32/187 302/31/188
f 304/32/188 302/31/188 299/32/185
f 297/31/185 299/32/185 302/31/188
f 291/31/181 292/32/181 293/31/184
f 294/32/184 293/31/184 292/32/181
f 298/31/186 295/31/183 300/32/186
f 296/32/183 300/32/186 295/31/183
f 301/31/187 303/32/187 289/31/182
f 290/32/182 289/31/182 303/32/187
f 305/31/189 306/31/190 307/32/189
f 308/32/190 307/32/189 306/31/190
f 309/31/192 310/32/192 311/31/191
f 312/32/191 311/31/191 310/32/192
f 313/31/193 314/31/194 315/32/193
f 316/32/194 315/32/193 314/31/194
f 317/31/195 318/31/196 319/32/195
f 320/32/196 319/32/195 318/31/196
f 320/32/196 318/31/196 315/32/193
f 313/31/193 315/32/193 318/31/196
f 305/31/189 307/32/189 309/31/192
f 310/32/192 309/31/192 307/32/189
f 314/31/194 311/31/191 316/32/194
f 312/32/191 316/32/194 311/31/191
f 306/31/190 317/31/195 308/32/190
f 319/32/195 308/32/190 317/31/195
f 343/33/60 342/33/60 341/33/60
f 342/33/60 343/33/60 344/33/60
f 342/33/60 344/33/60 345/33/60
f 345/33/60 344/33/60 346/33/60
f 345/33/60 346/33/60 347/33/60
f 347/33/60 346/33/60 348/33/60
f 351/34/199 350/34/198 349/34/197
f 350/34/198 351/34/199 352/34/200
f 350/34/198 352/34/200 353/34/201
f 353/34/201 352/34/200 354/34/202
f 353/34/201 354/34/202 355/34/203
f 355/34/203 354/34/202 356/34/204
f 358/35/206 349/34/197 357/35/205
f 349/34/197 358/35/206 351/34/199
f 359/35/207 350/34/198 353/34/201
f 350/34/198 359/35/207 360/35/208
f 361/35/209 353/34/201 355/34/203
f 353/34/201 361/35/209 359/35/207
f 355/34/203 362/35/210 361/35/209
f 362/35/210 355/34/203 356/34/204
f 363/35/211 354/34/202 352/34/200
f 354/34/202 363/35/211 364/35/212
f 357/35/205 350/34/198 360/35/208
f 350/34/198 357/35/205 349/34/197
f 354/34/202 362/35/210 356/34/204
f 362/35/210 354/34/202 364/35/212
f 358/35/206 352/34/200 351/34/199
f 352/34/200 358/35/206 363/35/211
f 343/33/213 357/35/205 360/35/208
f 357/35/205 343/33/213 341/33/214
f 362/35/210 347/33/216 348/33/215
f 347/33/216 362/35/210 364/35/212
f 345/33/217 364/35/212 363/35/211
f 364/35/212 345/33/217 347/33/216
f 362/35/210 346/33/218 361/35/209
f 346/33/218 362/35/210 348/33/215
f 344/33/219 360/35/208 359/35/207
f 360/35/208 344/33/219 343/33/213
f 346/33/218 359/35/207 361/35/209
f 359/35/207 346/33/218 344/33/219
f 342/33/220 363/35/211 358/35/206
f 363/35/211 342/33/220 345/33/217
f 342/33/220 357/35/205 341/33/214
f 357/35/205 342/33/220 358/35/206
f 367/36/223 366/34/222 365/36/221
f 366/34/222 367/36/223 368/34/224
f 367/36/223 369/34/225 368/34/224
f 369/34/225 367/36/223 370/36/226
f 365/36/221 372/34/228 371/36/227
f 372/34/228 365/36/221 366/34/222
f 373/33/229 370/36/226 367/36/223
f 370/36/226 373/33/229 374/33/230
f 377/36/233 376/33/232 375/36/231
f 376/33/232 377/36/233 378/33/234
f 375/36/231 379/33/235 371/36/227
f 379/33/235 375/36/231 376/33/232
f 380/33/236 367/36/223 365/36/221
f 367/36/223 380/33/236 373/33/229
f 381/33/237 370/36/226 374/33/230
f 370/36/226 381/33/237 382/36/238
f 383/33/239 382/36/238 381/33/237
f 382/36/238 383/33/239 384/36/240
f 377/36/233 383/33/239 378/33/234
f 383/33/239 377/36/233 384/36/240
f 371/36/227 380/33/236 365/36/221
f 380/33/236 371/36/227 379/33/235
f 377/36/233 386/34/242 385/34/241
f 386/34/242 377/36/233 375/36/231
f 385/34/241 384/36/240 377/36/233
f 384/36/240 385/34/241 387/34/243
f 370/36/226 388/34/244 369/34/225
f 388/34/244 370/36/226 382/36/238
f 388/34/244 384/36/240 387/34/243
f 384/36/240 388/34/244 382/36/238
f 375/36/231 372/34/228 386/34/242
f 372/34/228 375/36/231 371/36/227
f 391/37/247 390/34/246 389/34/245
f 390/34/246 391/37/247 392/37/248
f 395/33/251 394/37/250 393/33/249
f 394/37/250 395/33/251 396/37/252
f 391/37/247 398/33/254 397/33/253
f 398/33/254 391/37/247 399/37/255
f 391/37/247 400/33/256 392/37/248
f 400/33/256 391/37/247 397/33/253
f 403/37/259 402/33/258 401/37/257
f 402/33/258 403/37/259 404/33/260
f 406/33/262 394/37/250 405/37/261
f 394/37/250 406/33/262 393/33/249
f 398/33/254 396/37/252 395/33/251
f 396/37/252 398/33/254 399/37/255
f 402/33/258 405/37/261 401/37/257
f 405/37/261 402/33/258 406/33/262
f 392/37/248 404/33/260 403/37/259
f 404/33/260 392/37/248 400/33/256
f 392/37/248 407/34/263 390/34/246
f 407/34/263 392/37/248 403/37/259
f 408/34/264 396/37/252 399/37/255
f 396/37/252 408/34/264 409/34/265
f 405/37/261 411/34/267 410/34/266
f 411/34/267 405/37/261 394/37/250
f 405/37/261 412/34/268 401/37/257
f 412/34/268 405/37/261 410/34/266
f 394/37/250 409/34/265 411/34/267
f 409/34/265 394/37/250 396/37/252
f 401/37/257 407/34/263 403/37/259
f 407/34/263 401/37/257 412/34/268
f 389/34/245 399/37/255 391/37/247
f 399/37/255 389/34/245 408/34/264
f 11/34/271 414/38/270 413/38/269
f 414/38/270 11/34/271 415/34/272
f 413/38/269 416/34/273 11/34/271
f 416/34/273 413/38/269 417/38/274
f 415/34/272 418/38/275 414/38/270
f 418/38/275 415/34/272 15/34/276
f 420/38/278 15/34/276 419/34/277
f 15/34/276 420/38/278 418/38/275
f 417/38/274 422/33/280 421/38/279
f 422/33/280 417/38/274 423/33/281
f 413/38/269 425/33/283 424/33/282
f 425/33/283 413/38/269 414/38/270
f 428/38/286 427/34/285 426/38/284
f 427/34/285 428/38/286 10/34/287
f 429/33/288 420/38/278 428/38/286
f 420/38/278 429/33/288 430/33/289
f 428/38/286 419/34/277 10/34/287
f 419/34/277 428/38/286 420/38/278
f 425/33/283 418/38/275 431/33/290
f 418/38/275 425/33/283 414/38/270
f 413/38/269 423/33/281 417/38/274
f 423/33/281 413/38/269 424/33/282
f 431/33/290 420/38/278 430/33/289
f 420/38/278 431/33/290 418/38/275
f 432/33/291 428/38/286 426/38/284
f 428/38/286 432/33/291 429/33/288
f 421/38/279 432/33/291 426/38/284
f 432/33/291 421/38/279 422/33/280
f 417/38/274 16/34/292 416/34/273
f 16/34/292 417/38/274 421/38/279
f 426/38/284 16/34/292 421/38/279
f 16/34/292 426/38/284 427/34/285
f 435/40/293 434/39/294 433/39/293
f 434/39/294 435/40/293 436/40/294
f 439/39/35 438/39/35 437/39/35
f 438/39/35 439/39/35 433/39/35
f 438/39/35 433/39/35 440/39/35
f 440/39/35 433/39/35 434/39/35
f 440/39/35 434/39/35 441/39/35
f 441/39/35 434/39/35 442/39/35
f 443/40/295 439/39/296 437/39/295
f 439/39/296 443/40/295 444/40/296
f 444/40/296 433/39/293 439/39/296
f 433/39/293 444/40/296 435/40/293
f 445/40/297 437/39/295 438/39/297
f 437/39/295 445/40/297 443/40/295
f 446/41/298 436/40/299 435/40/298
f 436/40/299 446/41/298 447/41/299
f 449/40/300 447/41/299 448/41/300
f 447/41/299 449/40/300 436/40/299
f 451/41/302 443/40/301 450/41/301
f 443/40/301 451/41/302 444/40/302
f 453/41/303 445/40/304 452/40/303
f 445/40/304 453/41/303 454/41/304
f 449/40/300 456/41/305 455/40/305
f 456/41/305 449/40/300 448/41/300
f 451/41/302 435/40/298 444/40/302
f 435/40/298 451/41/302 446/41/298
f 454/41/304 443/40/301 445/40/304
f 443/40/301 454/41/304 450/41/301
f 456/41/305 452/40/303 455/40/305
f 452/40/303 456/41/305 453/41/303
f 434/39/294 449/40/306 442/39/306
f 449/40/306 434/39/294 436/40/294
f 455/40/307 440/39/308 441/39/307
f 440/39/308 455/40/307 452/40/308
f 442/39/306 455/40/307 441/39/307
f 455/40/307 442/39/306 449/40/306
f 452/40/308 438/39/297 440/39/308
f 438/39/297 452/40/308 445/40/297

g tree-decorated-snow




usemtl colormap

f 3/1/1 2/1/1 1/1/1
f 2/1/1 3/1/1 4/1/1
f 4/1/1 3/1/1 5/1/1
f 4/1/1 5/1/1 6/1/1
f 4/1/1 6/1/1 7/1/1
f 7/1/1 6/1/1 8/1/1
f 9/2/4 3/1/3 1/1/2
f 3/1/3 9/2/4 10/2/5
f 11/2/8 4/1/7 7/1/6
f 4/1/7 11/2/8 12/2/9
f 10/2/5 5/1/10 3/1/3
f 5/1/10 10/2/5 13/2/11
f 7/1/6 14/2/12 11/2/8
f 14/2/12 7/1/6 8/1/13
f 13/2/11 6/1/14 5/1/10
f 6/1/14 13/2/11 15/2/15
f 9/2/4 2/1/17 16/2/16
f 2/1/17 9/2/4 1/1/2
f 12/2/9 2/1/17 4/1/7
f 2/1/17 12/2/9 16/2/16
f 6/1/14 14/2/12 8/1/13
f 14/2/12 6/1/14 15/2/15
f 19/3/18 18/3/18 17/3/18
f 18/3/18 19/3/18 20/3/18
f 18/3/18 20/3/18 21/3/18
f 21/3/18 20/3/18 22/3/18
f 21/3/18 22/3/18 23/3/18
f 23/3/18 22/3/18 24/3/18
f 14/2/12 26/4/20 25/4/19
f 26/4/20 14/2/12 15/2/15
f 14/2/12 27/4/21 11/2/8
f 27/4/21 14/2/12 25/4/19
f 28/4/22 9/2/4 16/2/16
f 9/2/4 28/4/22 29/4/23
f 27/4/21 12/2/9 11/2/8
f 12/2/9 27/4/21 30/4/24
f 18/3/27 32/4/26 31/4/25
f 32/4/26 18/3/27 21/3/28
f 18/3/27 29/4/23 17/3/29
f 29/4/23 18/3/27 31/4/25
f 19/3/30 29/4/23 28/4/22
f 29/4/23 19/3/30 17/3/29
f 20/3/31 28/4/22 30/4/24
f 28/4/22 20/3/31 19/3/30
f 21/3/28 26/4/20 32/4/26
f 26/4/20 21/3/28 23/3/32
f 25/4/19 23/3/32 24/3/33
f 23/3/32 25/4/19 26/4/20
f 25/4/19 22/3/34 27/4/21
f 22/3/34 25/4/19 24/3/33
f 31/4/25 9/2/4 29/4/23
f 9/2/4 31/4/25 10/2/5
f 31/4/25 13/2/11 10/2/5
f 13/2/11 31/4/25 32/4/26
f 30/4/24 16/2/16 12/2/9
f 16/2/16 30/4/24 28/4/22
f 22/3/34 30/4/24 27/4/21
f 30/4/24 22/3/34 20/3/31
f 32/4/26 15/2/15 13/2/11
f 15/2/15 32/4/26 26/4/20
f 35/1/35 34/1/35 33/1/35
f 34/1/35 35/1/35 36/1/35
f 36/1/35 35/1/35 37/1/35
f 36/1/35 37/1/35 38/1/35
f 36/1/35 38/1/35 39/1/35
f 39/1/35 38/1/35 40/1/35
f 41/5/38 35/1/37 33/1/36
f 35/1/37 41/5/38 42/5/39
f 43/5/42 36/1/41 39/1/40
f 36/1/41 43/5/42 44/5/43
f 42/5/39 37/1/44 35/1/37
f 37/1/44 42/5/39 45/5/45
f 39/1/40 46/5/46 43/5/42
f 46/5/46 39/1/40 40/1/47
f 45/5/45 38/1/48 37/1/44
f 38/1/48 45/5/45 47/5/49
f 41/5/38 34/1/51 48/5/50
f 34/1/51 41/5/38 33/1/36
f 44/5/43 34/1/51 36/1/41
f 34/1/51 44/5/43 48/5/50
f 38/1/48 46/5/46 40/1/47
f 46/5/46 38/1/48 47/5/49
f 49/6/52 44/5/43 43/5/42
f 44/5/43 49/6/52 50/6/53
f 46/5/46 49/6/52 43/5/42
f 49/6/52 46/5/46 51/6/54
f 52/6/55 45/5/45 42/5/39
f 45/5/45 52/6/55 53/6/56
f 50/6/53 48/5/50 44/5/43
f 48/5/50 50/6/53 54/6/57
f 47/5/49 51/6/54 46/5/46
f 51/6/54 47/5/49 55/6/58
f 54/6/57 41/5/38 48/5/50
f 41/5/38 54/6/57 56/6/59
f 53/6/56 47/5/49 45/5/45
f 47/5/49 53/6/56 55/6/58
f 52/6/55 41/5/38 56/6/59
f 41/5/38 52/6/55 42/5/39
f 59/3/60 58/3/60 57/3/60
f 58/3/60 59/3/60 60/3/60
f 58/3/60 60/3/60 61/3/60
f 61/3/60 60/3/60 62/3/60
f 61/3/60 62/3/60 63/3/60
f 63/3/60 62/3/60 64/3/60
f 65/7/61 50/6/53 49/6/52
f 50/6/53 65/7/61 66/7/62
f 67/7/63 56/6/59 54/6/57
f 56/6/59 67/7/63 68/7/64
f 55/6/58 69/7/65 51/6/54
f 69/7/65 55/6/58 70/7/66
f 66/7/62 54/6/57 50/6/53
f 54/6/57 66/7/62 67/7/63
f 71/7/67 55/6/58 53/6/56
f 55/6/58 71/7/67 70/7/66
f 51/6/54 65/7/61 49/6/52
f 65/7/61 51/6/54 69/7/65
f 68/7/64 52/6/55 56/6/59
f 52/6/55 68/7/64 72/7/68
f 72/7/68 53/6/56 52/6/55
f 53/6/56 72/7/68 71/7/67
f 69/7/65 63/3/70 64/3/69
f 63/3/70 69/7/65 70/7/66
f 62/3/71 66/7/62 65/7/61
f 66/7/62 62/3/71 60/3/72
f 58/3/73 71/7/67 72/7/68
f 71/7/67 58/3/73 61/3/74
f 61/3/74 70/7/66 71/7/67
f 70/7/66 61/3/74 63/3/70
f 58/3/73 68/7/64 57/3/75
f 68/7/64 58/3/73 72/7/68
f 60/3/72 67/7/63 66/7/62
f 67/7/63 60/3/72 59/3/76
f 69/7/65 62/3/71 65/7/61
f 62/3/71 69/7/65 64/3/69
f 59/3/76 68/7/64 67/7/63
f 68/7/64 59/3/76 57/3/75
f 75/1/35 74/1/35 73/1/35
f 74/1/35 75/1/35 76/1/35
f 76/1/35 75/1/35 77/1/35
f 76/1/35 77/1/35 78/1/35
f 76/1/35 78/1/35 79/1/35
f 79/1/35 78/1/35 80/1/35
f 81/8/38 75/1/37 73/1/36
f 75/1/37 81/8/38 82/8/39
f 83/8/42 76/1/41 79/1/40
f 76/1/41 83/8/42 84/8/43
f 82/8/39 77/1/44 75/1/37
f 77/1/44 82/8/39 85/8/45
f 79/1/40 86/8/46 83/8/42
f 86/8/46 79/1/40 80/1/47
f 85/8/45 78/1/48 77/1/44
f 78/1/48 85/8/45 87/8/49
f 81/8/38 74/1/51 88/8/50
f 74/1/51 81/8/38 73/1/36
f 84/8/43 74/1/51 76/1/41
f 74/1/51 84/8/43 88/8/50
f 78/1/48 86/8/46 80/1/47
f 86/8/46 78/1/48 87/8/49
f 91/9/60 90/9/60 89/9/60
f 90/9/60 91/9/60 92/9/60
f 90/9/60 92/9/60 93/9/60
f 93/9/60 92/9/60 94/9/60
f 93/9/60 94/9/60 95/9/60
f 95/9/60 94/9/60 96/9/60
f 86/8/46 98/10/78 97/10/77
f 98/10/78 86/8/46 87/8/49
f 86/8/46 99/10/79 83/8/42
f 99/10/79 86/8/46 97/10/77
f 100/10/80 81/8/38 88/8/50
f 81/8/38 100/10/80 101/10/81
f 99/10/79 84/8/43 83/8/42
f 84/8/43 99/10/79 102/10/82
f 90/9/85 104/10/84 103/10/83
f 104/10/84 90/9/85 93/9/86
f 90/9/85 101/10/81 89/9/87
f 101/10/81 90/9/85 103/10/83
f 91/9/88 101/10/81 100/10/80
f 101/10/81 91/9/88 89/9/87
f 92/9/89 100/10/80 102/10/82
f 100/10/80 92/9/89 91/9/88
f 93/9/86 98/10/78 104/10/84
f 98/10/78 93/9/86 95/9/90
f 97/10/77 95/9/90 96/9/91
f 95/9/90 97/10/77 98/10/78
f 97/10/77 94/9/92 99/10/79
f 94/9/92 97/10/77 96/9/91
f 103/10/83 81/8/38 101/10/81
f 81/8/38 103/10/83 82/8/39
f 103/10/83 85/8/45 82/8/39
f 85/8/45 103/10/83 104/10/84
f 102/10/82 88/8/50 84/8/43
f 88/8/50 102/10/82 100/10/80
f 94/9/92 102/10/82 99/10/79
f 102/10/82 94/9/92 92/9/89
f 104/10/84 87/8/49 85/8/45
f 87/8/49 104/10/84 98/10/78
f 107/12/95 106/12/94 105/11/93
f 106/12/94 108/12/97 105/11/96
f 105/11/100 110/12/99 109/12/98
f 105/11/101 108/12/97 110/12/99
f 111/12/103 105/11/102 109/12/98
f 107/12/95 105/11/104 111/12/103
f 114/14/107 113/13/106 112/13/105
f 116/13/110 114/14/109 115/13/108
f 117/13/112 114/14/111 116/13/110
f 114/14/113 112/13/105 115/13/108
f 117/13/112 118/13/115 114/14/114
f 118/13/115 113/13/106 114/14/116
f 120/15/118 107/12/95 119/15/117
f 107/12/95 120/15/118 106/12/94
f 108/12/97 120/15/118 121/15/119
f 120/15/118 108/12/97 106/12/94
f 108/12/97 122/15/120 110/12/99
f 122/15/120 108/12/97 121/15/119
f 116/13/110 119/15/117 117/13/112
f 119/15/117 116/13/110 120/15/118
f 121/15/119 116/13/110 115/13/108
f 116/13/110 121/15/119 120/15/118
f 121/15/119 112/13/105 122/15/120
f 112/13/105 121/15/119 115/13/108
f 122/15/120 113/13/106 123/15/121
f 113/13/106 122/15/120 112/13/105
f 111/12/103 123/15/121 124/15/122
f 123/15/121 111/12/103 109/12/98
f 124/15/122 113/13/106 118/13/115
f 113/13/106 124/15/122 123/15/121
f 119/15/117 111/12/103 124/15/122
f 111/12/103 119/15/117 107/12/95
f 109/12/98 122/15/120 123/15/121
f 122/15/120 109/12/98 110/12/99
f 118/13/115 119/15/117 124/15/122
f 119/15/117 118/13/115 117/13/112
f 127/13/115 126/13/106 125/14/116
f 129/13/112 125/14/111 128/13/110
f 132/11/101 131/12/97 130/12/99
f 133/12/94 131/12/97 132/11/96
f 128/13/110 125/14/109 134/13/108
f 136/12/103 132/11/102 135/12/98
f 125/14/107 126/13/106 137/13/105
f 129/13/112 127/13/115 125/14/114
f 138/12/95 132/11/104 136/12/103
f 132/11/100 130/12/99 135/12/98
f 138/12/95 133/12/94 132/11/93
f 125/14/113 137/13/105 134/13/108
f 140/15/120 126/13/106 139/15/121
f 126/13/106 140/15/120 137/13/105
f 131/12/97 140/15/120 130/12/99
f 140/15/120 131/12/97 141/15/119
f 136/12/103 139/15/121 142/15/122
f 139/15/121 136/12/103 135/12/98
f 142/15/122 126/13/106 127/13/115
f 126/13/106 142/15/122 139/15/121
f 143/15/117 136/12/103 142/15/122
f 136/12/103 143/15/117 138/12/95
f 141/15/119 137/13/105 140/15/120
f 137/13/105 141/15/119 134/13/108
f 135/12/98 140/15/120 139/15/121
f 140/15/120 135/12/98 130/12/99
f 127/13/115 143/15/117 142/15/122
f 143/15/117 127/13/115 129/13/112
f 131/12/97 144/15/118 141/15/119
f 144/15/118 131/12/97 133/12/94
f 144/15/118 138/12/95 143/15/117
f 138/12/95 144/15/118 133/12/94
f 141/15/119 128/13/110 134/13/108
f 128/13/110 141/15/119 144/15/118
f 128/13/110 143/15/117 129/13/112
f 143/15/117 128/13/110 144/15/118
f 147/13/112 146/14/111 145/13/110
f 150/12/95 149/11/104 148/12/103
f 152/13/115 151/13/106 146/14/116
f 147/13/112 152/13/115 146/14/114
f 149/11/101 154/12/97 153/12/99
f 145/13/110 146/14/109 155/13/108
f 146/14/113 156/13/105 155/13/108
f 149/11/100 153/12/99 157/12/98
f 150/12/95 158/12/94 149/11/93
f 148/12/103 149/11/102 157/12/98
f 158/12/94 154/12/97 149/11/96
f 146/14/107 151/13/106 156/13/105
f 145/13/110 159/15/117 147/13/112
f 159/15/117 145/13/110 160/15/118
f 154/12/97 161/15/120 153/12/99
f 161/15/120 154/12/97 162/15/119
f 148/12/103 164/15/121 163/15/122
f 164/15/121 148/12/103 157/12/98
f 160/15/118 150/12/95 159/15/117
f 150/12/95 160/15/118 158/12/94
f 154/12/97 160/15/118 162/15/119
f 160/15/118 154/12/97 158/12/94
f 157/12/98 161/15/120 164/15/121
f 161/15/120 157/12/98 153/12/99
f 159/15/117 148/12/103 163/15/122
f 148/12/103 159/15/117 150/12/95
f 162/15/119 145/13/110 155/13/108
f 145/13/110 162/15/119 160/15/118
f 162/15/119 156/13/105 161/15/120
f 156/13/105 162/15/119 155/13/108
f 163/15/122 151/13/106 152/13/115
f 151/13/106 163/15/122 164/15/121
f 161/15/120 151/13/106 164/15/121
f 151/13/106 161/15/120 156/13/105
f 152/13/115 159/15/117 163/15/122
f 159/15/117 152/13/115 147/13/112
f 167/17/124 166/16/123 165/16/123
f 166/16/123 167/17/124 168/17/124
f 171/18/126 170/17/125 169/17/125
f 170/17/125 171/18/126 172/18/126
f 175/20/127 174/19/127 173/15/127
f 174/19/127 175/20/127 167/17/127
f 170/17/127 174/19/127 167/17/127
f 170/17/127 167/17/127 165/16/127
f 172/18/127 174/19/127 170/17/127
f 174/19/127 172/18/127 176/21/127
f 170/17/127 165/16/127 177/22/127
f 177/22/127 165/16/127 178/23/127
f 178/23/127 165/16/127 179/23/127
f 178/23/127 179/23/127 180/23/127
f 178/23/127 180/23/127 181/23/127
f 182/24/127 181/23/127 180/23/127
f 181/23/127 182/24/127 183/25/127
f 183/25/127 182/24/127 184/11/127
f 179/23/128 166/16/123 185/23/128
f 166/16/123 179/23/128 165/16/123
f 187/25/129 184/11/60 186/11/60
f 184/11/60 187/25/129 183/25/129
f 171/18/130 189/19/130 188/21/130
f 189/19/130 171/18/130 169/17/130
f 168/17/130 189/19/130 169/17/130
f 168/17/130 169/17/130 190/22/130
f 191/20/130 189/19/130 168/17/130
f 189/19/130 191/20/130 192/15/130
f 168/17/130 190/22/130 166/16/130
f 166/16/130 190/22/130 193/23/130
f 166/16/130 193/23/130 185/23/130
f 185/23/130 193/23/130 194/23/130
f 185/23/130 194/23/130 195/23/130
f 187/25/130 195/23/130 194/23/130
f 195/23/130 187/25/130 196/24/130
f 196/24/130 187/25/130 186/11/130
f 186/11/60 182/24/131 196/24/131
f 182/24/131 186/11/60 184/11/60
f 193/23/132 181/23/60 194/23/60
f 181/23/60 193/23/132 178/23/132
f 177/22/133 193/23/132 190/22/133
f 193/23/132 177/22/133 178/23/132
f 173/15/135 191/20/134 175/20/134
f 191/20/134 173/15/135 192/15/135
f 195/23/60 179/23/128 185/23/128
f 179/23/128 195/23/60 180/23/60
f 182/24/131 195/23/136 196/24/131
f 195/23/136 182/24/131 180/23/136
f 194/23/137 183/25/129 187/25/129
f 183/25/129 194/23/137 181/23/137
f 172/18/126 188/21/138 176/21/138
f 188/21/138 172/18/126 171/18/126
f 176/21/138 189/19/124 174/19/124
f 189/19/124 176/21/138 188/21/138
f 174/19/139 192/15/135 173/15/135
f 192/15/135 174/19/139 189/19/139
f 167/17/140 191/20/134 168/17/140
f 191/20/134 167/17/140 175/20/134
f 177/22/133 169/17/139 170/17/139
f 169/17/139 177/22/133 190/22/133
f 199/11/35 198/11/35 197/11/35
f 198/11/35 199/11/35 200/11/35
f 198/11/35 200/11/35 201/11/35
f 201/11/35 200/11/35 202/11/35
f 201/11/35 202/11/35 203/11/35
f 203/11/35 202/11/35 204/11/35
f 207/14/60 206/14/60 205/14/60
f 206/14/60 207/14/60 208/14/60
f 206/14/60 208/14/60 209/14/60
f 209/14/60 208/14/60 210/14/60
f 209/14/60 210/14/60 211/14/60
f 211/14/60 210/14/60 212/14/60
f 201/11/141 210/14/142 208/14/141
f 210/14/142 201/11/141 203/11/142
f 203/11/142 212/14/143 210/14/142
f 212/14/143 203/11/142 204/11/143
f 198/11/145 205/14/144 197/11/144
f 205/14/144 198/11/145 207/14/145
f 205/14/144 199/11/146 197/11/144
f 199/11/146 205/14/144 206/14/146
f 212/14/143 202/11/147 211/14/147
f 202/11/147 212/14/143 204/11/143
f 201/11/141 207/14/145 198/11/145
f 207/14/145 201/11/141 208/14/141
f 211/14/147 200/11/148 209/14/148
f 200/11/148 211/14/147 202/11/147
f 206/14/146 200/11/148 199/11/146
f 200/11/148 206/14/146 209/14/148
f 215/27/112 214/27/115 213/26/114
f 215/27/112 213/26/111 216/27/110
f 216/27/110 213/26/109 217/27/108
f 220/28/103 219/29/102 218/28/98
f 213/26/107 222/27/106 221/27/105
f 214/27/115 222/27/106 213/26/116
f 224/28/95 223/28/94 219/29/93
f 224/28/95 219/29/104 220/28/103
f 223/28/94 225/28/97 219/29/96
f 219/29/100 226/28/99 218/28/98
f 213/26/113 221/27/105 217/27/108
f 219/29/101 225/28/97 226/28/99
f 228/30/120 222/27/106 227/30/121
f 222/27/106 228/30/120 221/27/105
f 214/27/115 230/30/117 229/30/122
f 230/30/117 214/27/115 215/27/112
f 225/28/97 232/30/118 231/30/119
f 232/30/118 225/28/97 223/28/94
f 229/30/122 222/27/106 214/27/115
f 222/27/106 229/30/122 227/30/121
f 232/30/118 224/28/95 230/30/117
f 224/28/95 232/30/118 223/28/94
f 231/30/119 221/27/105 228/30/120
f 221/27/105 231/30/119 217/27/108
f 218/28/98 228/30/120 227/30/121
f 228/30/120 218/28/98 226/28/99
f 220/28/103 227/30/121 229/30/122
f 227/30/121 220/28/103 218/28/98
f 230/30/117 220/28/103 229/30/122
f 220/28/103 230/30/117 224/28/95
f 216/27/110 230/30/117 215/27/112
f 230/30/117 216/27/110 232/30/118
f 225/28/97 228/30/120 226/28/99
f 228/30/120 225/28/97 231/30/119
f 231/30/119 216/27/110 217/27/108
f 216/27/110 231/30/119 232/30/118
f 235/28/103 234/29/102 233/28/98
f 236/28/95 234/29/104 235/28/103
f 239/27/112 238/26/111 237/27/110
f 238/26/107 241/27/106 240/27/105
f 238/26/113 240/27/105 242/27/108
f 237/27/110 238/26/109 242/27/108
f 243/27/115 241/27/106 238/26/116
f 239/27/112 243/27/115 238/26/114
f 236/28/95 244/28/94 234/29/93
f 244/28/94 245/28/97 234/29/96
f 234/29/101 245/28/97 246/28/99
f 234/29/100 246/28/99 233/28/98
f 245/28/97 248/30/118 247/30/119
f 248/30/118 245/28/97 244/28/94
f 233/28/98 250/30/120 249/30/121
f 250/30/120 233/28/98 246/28/99
f 245/28/97 250/30/120 246/28/99
f 250/30/120 245/28/97 247/30/119
f 235/28/103 249/30/121 251/30/122
f 249/30/121 235/28/103 233/28/98
f 248/30/118 236/28/95 252/30/117
f 236/28/95 248/30/118 244/28/94
f 252/30/117 235/28/103 251/30/122
f 235/28/103 252/30/117 236/28/95
f 247/30/119 237/27/110 242/27/108
f 237/27/110 247/30/119 248/30/118
f 251/30/122 241/27/106 243/27/115
f 241/27/106 251/30/122 249/30/121
f 247/30/119 240/27/105 250/30/120
f 240/27/105 247/30/119 242/27/108
f 237/27/110 252/30/117 239/27/112
f 252/30/117 237/27/110 248/30/118
f 250/30/120 241/27/106 249/30/121
f 241/27/106 250/30/120 240/27/105
f 243/27/115 252/30/117 251/30/122
f 252/30/117 243/27/115 239/27/112
f 255/28/103 254/29/102 253/28/98
f 256/28/95 254/29/104 255/28/103
f 259/27/112 258/26/111 257/27/110
f 258/26/107 261/27/106 260/27/105
f 258/26/113 260/27/105 262/27/108
f 257/27/110 258/26/109 262/27/108
f 263/27/115 261/27/106 258/26/116
f 259/27/112 263/27/115 258/26/114
f 256/28/95 264/28/94 254/29/93
f 264/28/94 265/28/97 254/29/96
f 254/29/101 265/28/97 266/28/99
f 254/29/100 266/28/99 253/28/98
f 265/28/97 268/30/118 267/30/119
f 268/30/118 265/28/97 264/28/94
f 253/28/98 270/30/120 269/30/121
f 270/30/120 253/28/98 266/28/99
f 265/28/97 270/30/120 266/28/99
f 270/30/120 265/28/97 267/30/119
f 255/28/103 269/30/121 271/30/122
f 269/30/121 255/28/103 253/28/98
f 268/30/118 256/28/95 272/30/117
f 256/28/95 268/30/118 264/28/94
f 272/30/117 255/28/103 271/30/122
f 255/28/103 272/30/117 256/28/95
f 267/30/119 257/27/110 262/27/108
f 257/27/110 267/30/119 268/30/118
f 271/30/122 261/27/106 263/27/115
f 261/27/106 271/30/122 269/30/121
f 267/30/119 260/27/105 270/30/120
f 260/27/105 267/30/119 262/27/108
f 257/27/110 272/30/117 259/27/112
f 272/30/117 257/27/110 268/30/118
f 270/30/120 261/27/106 269/30/121
f 261/27/106 270/30/120 260/27/105
f 263/27/115 272/30/117 271/30/122
f 272/30/117 263/27/115 259/27/112
f 275/26/150 274/29/149 273/26/149
f 274/29/149 275/26/150 276/29/150
f 279/26/152 278/29/151 277/26/151
f 278/29/151 279/26/152 280/29/152
f 283/26/154 282/29/153 281/26/153
f 282/29/153 283/26/154 284/29/154
f 287/29/155 286/26/156 285/26/155
f 286/26/156 287/29/155 288/29/156
f 284/29/154 286/26/156 288/29/156
f 286/26/156 284/29/154 283/26/154
f 277/26/151 276/29/150 275/26/150
f 276/29/150 277/26/151 278/29/151
f 282/29/153 279/26/152 281/26/153
f 279/26/152 282/29/153 280/29/152
f 274/29/149 285/26/155 273/26/149
f 285/26/155 274/29/149 287/29/155
f 291/26/158 290/29/157 289/26/157
f 290/29/157 291/26/158 292/29/158
f 295/26/160 294/29/159 293/26/159
f 294/29/159 295/26/160 296/29/160
f 299/29/161 298/26/162 297/26/161
f 298/26/162 299/29/161 300/29/162
f 303/29/163 302/26/164 301/26/163
f 302/26/164 303/29/163 304/29/164
f 299/29/161 302/26/164 304/29/164
f 302/26/164 299/29/161 297/26/161
f 293/26/159 292/29/158 291/26/158
f 292/29/158 293/26/159 294/29/159
f 300/29/162 295/26/160 298/26/162
f 295/26/160 300/29/162 296/29/160
f 289/26/157 303/29/163 301/26/163
f 303/29/163 289/26/157 290/29/157
f 307/29/165 306/26/166 305/26/165
f 306/26/166 307/29/165 308/29/166
f 311/26/168 310/29/167 309/26/167
f 310/29/167 311/26/168 312/29/168
f 315/29/169 314/26/170 313/26/169
f 314/26/170 315/29/169 316/29/170
f 319/29/171 318/26/172 317/26/171
f 318/26/172 319/29/171 320/29/172
f 315/29/169 318/26/172 320/29/172
f 318/26/172 315/29/169 313/26/169
f 309/26/167 307/29/165 305/26/165
f 307/29/165 309/26/167 310/29/167
f 316/29/170 311/26/168 314/26/170
f 311/26/168 316/29/170 312/29/168
f 308/29/166 317/26/171 306/26/166
f 317/26/171 308/29/166 319/29/171
f 323/28/103 322/29/102 321/28/98
f 324/28/95 322/29/104 323/28/103
f 327/27/112 326/26/111 325/27/110
f 326/26/107 329/27/106 328/27/105
f 326/26/113 328/27/105 330/27/108
f 325/27/110 326/26/109 330/27/108
f 331/27/115 329/27/106 326/26/116
f 327/27/112 331/27/115 326/26/114
f 324/28/95 332/28/94 322/29/93
f 332/28/94 333/28/97 322/29/96
f 322/29/101 333/28/97 334/28/99
f 322/29/100 334/28/99 321/28/98
f 333/28/97 336/30/118 335/30/119
f 336/30/118 333/28/97 332/28/94
f 321/28/98 338/30/120 337/30/121
f 338/30/120 321/28/98 334/28/99
f 333/28/97 338/30/120 334/28/99
f 338/30/120 333/28/97 335/30/119
f 323/28/103 337/30/121 339/30/122
f 337/30/121 323/28/103 321/28/98
f 336/30/118 324/28/95 340/30/117
f 324/28/95 336/30/118 332/28/94
f 340/30/117 323/28/103 339/30/122
f 323/28/103 340/30/117 324/28/95
f 335/30/119 325/27/110 330/27/108
f 325/27/110 335/30/119 336/30/118
f 339/30/122 329/27/106 331/27/115
f 329/27/106 339/30/122 337/30/121
f 335/30/119 328/27/105 338/30/120
f 328/27/105 335/30/119 330/27/108
f 325/27/110 340/30/117 327/27/112
f 340/30/117 325/27/110 336/30/118
f 338/30/120 329/27/106 337/30/121
f 329/27/106 338/30/120 328/27/105
f 331/27/115 340/30/117 339/30/122
f 340/30/117 331/27/115 327/27/112
f 273/31/174 274/32/174 275/31/173
f 276/32/173 275/31/173 274/32/174
f 277/31/176 278/32/176 279/31/175
f 280/32/175 279/31/175 278/32/176
f 281/31/178 282/32/178 283/31/177
f 284/32/177 283/31/177 282/32/178
f 285/31/179 286/31/180 287/32/179
f 288/32/180 287/32/179 286/31/180
f 288/32/180 286/31/180 284/32/177
f 283/31/177 284/32/177 286/31/180
f 275/31/173 276/32/173 277/31/176
f 278/32/176 277/31/176 276/32/173
f 281/31/178 279/31/175 282/32/178
f 280/32/175 282/32/178 279/31/175
f 273/31/174 285/31/179 274/32/174
f 287/32/179 274/32/174 285/31/179
f 289/31/182 290/32/182 291/31/181
f 292/32/181 291/31/181 290/32/182
f 293/31/184 294/32/184 295/31/183
f 296/32/183 295/31/183 294/32/184
f 297/31/185 298/31/186 299/32/185
f 300/32/186 299/32/185 298/31/186
f 301/31/187 302/31/188 303/32/187
f 304/32/188 303/32/187 302/31/188
f 304/32/188 302/31/188 299/32/185
f 297/31/185 299/32/185 302/31/188
f 291/31/181 292/32/181 293/31/184
f 294/32/184 293/31/184 292/32/181
f 298/31/186 295/31/183 300/32/186
f 296/32/183 300/32/186 295/31/183
f 301/31/187 303/32/187 289/31/182
f 290/32/182 289/31/182 303/32/187
f 305/31/189 306/31/190 307/32/189
f 308/32/190 307/32/189 306/31/190
f 309/31/192 310/32/192 311/31/191
f 312/32/191 311/31/191 310/32/192
f 313/31/193 314/31/194 315/32/193
f 316/32/194 315/32/193 314/31/194
f 317/31/195 318/31/196 319/32/195
f 320/32/196 319/32/195 318/31/196
f 320/32/196 318/31/196 315/32/193
f 313/31/193 315/32/193 318/31/196
f 305/31/189 307/32/189 309/31/192
f 310/32/192 309/31/192 307/32/189
f 314/31/194 311/31/191 316/32/194
f 312/32/191 316/32/194 311/31/191
f 306/31/190 317/31/195 308/32/190
f 319/32/195 308/32/190 317/31/195
f 343/33/60 342/33/60 341/33/60
f 342/33/60 343/33/60 344/33/60
f 342/33/60 344/33/60 345/33/60
f 345/33/60 344/33/60 346/33/60
f 345/33/60 346/33/60 347/33/60
f 347/33/60 346/33/60 348/33/60
f 351/34/199 350/34/198 349/34/197
f 350/34/198 351/34/199 352/34/200
f 350/34/198 352/34/200 353/34/201
f 353/34/201 352/34/200 354/34/202
f 353/34/201 354/34/202 355/34/203
f 355/34/203 354/34/202 356/34/204
f 358/35/206 349/34/197 357/35/205
f 349/34/197 358/35/206 351/34/199
f 359/35/207 350/34/198 353/34/201
f 350/34/198 359/35/207 360/35/208
f 361/35/209 353/34/201 355/34/203
f 353/34/201 361/35/209 359/35/207
f 355/34/203 362/35/210 361/35/209
f 362/35/210 355/34/203 356/34/204
f 363/35/211 354/34/202 352/34/200
f 354/34/202 363/35/211 364/35/212
f 357/35/205 350/34/198 360/35/208
f 350/34/198 357/35/205 349/34/197
f 354/34/202 362/35/210 356/34/204
f 362/35/210 354/34/202 364/35/212
f 358/35/206 352/34/200 351/34/199
f 352/34/200 358/35/206 363/35/211
f 343/33/213 357/35/205 360/35/208
f 357/35/205 343/33/213 341/33/214
f 362/35/210 347/33/216 348/33/215
f 347/33/216 362/35/210 364/35/212
f 345/33/217 364/35/212 363/35/211
f 364/35/212 345/33/217 347/33/216
f 362/35/210 346/33/218 361/35/209
f 346/33/218 362/35/210 348/33/215
f 344/33/219 360/35/208 359/35/207
f 360/35/208 344/33/219 343/33/213
f 346/33/218 359/35/207 361/35/209
f 359/35/207 346/33/218 344/33/219
f 342/33/220 363/35/211 358/35/206
f 363/35/211 342/33/220 345/33/217
f 342/33/220 357/35/205 341/33/214
f 357/35/205 342/33/220 358/35/206
f 367/36/223 366/34/222 365/36/221
f 366/34/222 367/36/223 368/34/224
f 367/36/223 369/34/225 368/34/224
f 369/34/225 367/36/223 370/36/226
f 365/36/221 372/34/228 371/36/227
f 372/34/228 365/36/221 366/34/222
f 373/33/229 370/36/226 367/36/223
f 370/36/226 373/33/229 374/33/230
f 377/36/233 376/33/232 375/36/231
f 376/33/232 377/36/233 378/33/234
f 375/36/231 379/33/235 371/36/227
f 379/33/235 375/36/231 376/33/232
f 380/33/236 367/36/223 365/36/221
f 367/36/223 380/33/236 373/33/229
f 381/33/237 370/36/226 374/33/230
f 370/36/226 381/33/237 382/36/238
f 383/33/239 382/36/238 381/33/237
f 382/36/238 383/33/239 384/36/240
f 377/36/233 383/33/239 378/33/234
f 383/33/239 377/36/233 384/36/240
f 371/36/227 380/33/236 365/36/221
f 380/33/236 371/36/227 379/33/235
f 377/36/233 386/34/242 385/34/241
f 386/34/242 377/36/233 375/36/231
f 385/34/241 384/36/240 377/36/233
f 384/36/240 385/34/241 387/34/243
f 370/36/226 388/34/244 369/34/225
f 388/34/244 370/36/226 382/36/238
f 388/34/244 384/36/240 387/34/243
f 384/36/240 388/34/244 382/36/238
f 375/36/231 372/34/228 386/34/242
f 372/34/228 375/36/231 371/36/227
f 391/37/247 390/34/246 389/34/245
f 390/34/246 391/37/247 392/37/248
f 395/33/251 394/37/250 393/33/249
f 394/37/250 395/33/251 396/37/252
f 391/37/247 398/33/254 397/33/253
f 398/33/254 391/37/247 399/37/255
f 391/37/247 400/33/256 392/37/248
f 400/33/256 391/37/247 397/33/253
f 403/37/259 402/33/258 401/37/257
f 402/33/258 403/37/259 404/33/260
f 406/33/262 394/37/250 405/37/261
f 394/37/250 406/33/262 393/33/249
f 398/33/254 396/37/252 395/33/251
f 396/37/252 398/33/254 399/37/255
f 402/33/258 405/37/261 401/37/257
f 405/37/261 402/33/258 406/33/262
f 392/37/248 404/33/260 403/37/259
f 404/33/260 392/37/248 400/33/256
f 392/37/248 407/34/263 390/34/246
f 407/34/263 392/37/248 403/37/259
f 408/34/264 396/37/252 399/37/255
f 396/37/252 408/34/264 409/34/265
f 405/37/261 411/34/267 410/34/266
f 411/34/267 405/37/261 394/37/250
f 405/37/261 412/34/268 401/37/257
f 412/34/268 405/37/261 410/34/266
f 394/37/250 409/34/265 411/34/267
f 409/34/265 394/37/250 396/37/252
f 401/37/257 407/34/263 403/37/259
f 407/34/263 401/37/257 412/34/268
f 389/34/245 399/37/255 391/37/247
f 399/37/255 389/34/245 408/34/264
f 11/34/271 414/38/270 413/38/269
f 414/38/270 11/34/271 415/34/272
f 413/38/269 416/34/273 11/34/271
f 416/34/273 413/38/269 417/38/274
f 415/34/272 418/38/275 414/38/270
f 418/38/275 415/34/272 15/34/276
f 420/38/278 15/34/276 419/34/277
f 15/34/276 420/38/278 418/38/275
f 417/38/274 422/33/280 421/38/279
f 422/33/280 417/38/274 423/33/281
f 413/38/269 425/33/283 424/33/282
f 425/33/283 413/38/269 414/38/270
f 428/38/286 427/34/285 426/38/284
f 427/34/285 428/38/286 10/34/287
f 429/33/288 420/38/278 428/38/286
f 420/38/278 429/33/288 430/33/289
f 428/38/286 419/34/277 10/34/287
f 419/34/277 428/38/286 420/38/278
f 425/33/283 418/38/275 431/33/290
f 418/38/275 425/33/283 414/38/270
f 413/38/269 423/33/281 417/38/274
f 423/33/281 413/38/269 424/33/282
f 431/33/290 420/38/278 430/33/289
f 420/38/278 431/33/290 418/38/275
f 432/33/291 428/38/286 426/38/284
f 428/38/286 432/33/291 429/33/288
f 421/38/279 432/33/291 426/38/284
f 432/33/291 421/38/279 422/33/280
f 417/38/274 16/34/292 416/34/273
f 16/34/292 417/38/274 421/38/279
f 426/38/284 16/34/292 421/38/279
f 16/34/292 426/38/284 427/34/285
f 435/40/293 434/39/294 433/39/293
f 434/39/294 435/40/293 436/40/294
f 439/39/35 438/39/35 437/39/35
f 438/39/35 439/39/35 433/39/35
f 438/39/35 433/39/35 440/39/35
f 440/39/35 433/39/35 434/39/35
f 440/39/35 434/39/35 441/39/35
f 441/39/35 434/39/35 442/39/35
f 443/40/295 439/39/296 437/39/295
f 439/39/296 443/40/295 444/40/296
f 444/40/296 433/39/293 439/39/296
f 433/39/293 444/40/296 435/40/293
f 445/40/297 437/39/295 438/39/297
f 437/39/295 445/40/297 443/40/295
f 446/41/298 436/40/299 435/40/298
f 436/40/299 446/41/298 447/41/299
f 449/40/300 447/41/299 448/41/300
f 447/41/299 449/40/300 436/40/299
f 451/41/302 443/40/301 450/41/301
f 443/40/301 451/41/302 444/40/302
f 453/41/303 445/40/304 452/40/303
f 445/40/304 453/41/303 454/41/304
f 449/40/300 456/41/305 455/40/305
f 456/41/305 449/40/300 448/41/300
f 451/41/302 435/40/298 444/40/302
f 435/40/298 451/41/302 446/41/298
f 454/41/304 443/40/301 445/40/304
f 443/40/301 454/41/304 450/41/301
f 456/41/305 452/40/303 455/40/305
f 452/40/303 456/41/305 453/41/303
f 434/39/294 449/40/306 442/39/306
f 449/40/306 434/39/294 436/40/294
f 455/40/307 440/39/308 441/39/307
f 440/39/308 455/40/307 452/40/308
f 442/39/306 455/40/307 441/39/307
f 455/40/307 442/39/306 449/40/306
f 452/40/308 438/39/297 440/39/308
f 438/39/297 452/40/308 445/40/297
